<svg xmlns="http://www.w3.org/2000/svg" xmlns:xlink="http://www.w3.org/1999/xlink" viewBox="0 0 272.48 89.63"><defs><style>.cls-1{fill:none;}.cls-2{isolation:isolate;}.cls-3{clip-path:url(#clip-path);}.cls-4{fill:#1d1d1b;}.cls-5{clip-path:url(#clip-path-2);}.cls-6{fill:url(#Gradiente_sem_nome);}.cls-7{clip-path:url(#clip-path-3);}.cls-8{fill:url(#Gradiente_sem_nome_2);}.cls-9{mix-blend-mode:multiply;}.cls-10{clip-path:url(#clip-path-5);}.cls-11{clip-path:url(#clip-path-6);}.cls-12{fill:url(#Gradiente_sem_nome_3);}.cls-13{fill:#009561;}.cls-14{fill:#fff;}</style><clipPath id="clip-path" transform="translate(-14.03 -14.03)"><rect class="cls-1" width="290" height="112.69"/></clipPath><clipPath id="clip-path-2" transform="translate(-14.03 -14.03)"><rect class="cls-1" x="14.03" y="14.03" width="56.13" height="56.13"/></clipPath><linearGradient id="Gradiente_sem_nome" y1="112.69" x2="1" y2="112.69" gradientTransform="matrix(0, 59.25, 59.25, 0, -6648.91, -1.38)" gradientUnits="userSpaceOnUse"><stop offset="0" stop-color="#009561"/><stop offset="0.6" stop-color="#7fcaaf"/><stop offset="1" stop-color="#009561"/></linearGradient><clipPath id="clip-path-3" transform="translate(-14.03 -14.03)"><path class="cls-1" d="M18.42,15c-1.09,0-1.8.92-2,2.21,0,0-1.4,7.37-1.4,23a211,211,0,0,0,1.4,25.88c.13,1.24.88,2.21,2,2.21H67a2,2,0,0,0,2-2.21s-.55-12-.55-23.7S69,17.24,69,17.24A2.11,2.11,0,0,0,67,15Z"/></clipPath><linearGradient id="Gradiente_sem_nome_2" y1="112.69" x2="1" y2="112.69" gradientTransform="matrix(0, 66.57, 66.57, 0, -7473.48, -13.93)" gradientUnits="userSpaceOnUse"><stop offset="0" stop-color="#009561"/><stop offset="0.3" stop-color="#7fcaaf"/><stop offset="0.55" stop-color="#009561"/><stop offset="0.84" stop-color="#009561"/><stop offset="0.91" stop-color="#099967"/><stop offset="1" stop-color="#1aa071"/></linearGradient><clipPath id="clip-path-5" transform="translate(-14.03 -14.03)"><rect class="cls-1" x="15.05" y="15.03" width="53.92" height="53.31"/></clipPath><clipPath id="clip-path-6" transform="translate(-14.03 -14.03)"><path class="cls-1" d="M68.42,42.43c0,11.71.55,23.7.55,23.7a2,2,0,0,1-2,2.21H18.42c-1.09,0-1.84-1-2-2.21a211,211,0,0,1-1.4-25.88c0-15.64,1.4-23,1.4-23,.17-1.29.88-2.21,2-2.21H67a2.11,2.11,0,0,1,2,2.21s-.55,13.48-.55,25.19"/></clipPath><linearGradient id="Gradiente_sem_nome_3" y1="112.69" x2="1" y2="112.69" gradientTransform="matrix(0, 66.57, 66.57, 0, -7473.48, -13.93)" gradientUnits="userSpaceOnUse"><stop offset="0" stop-color="#fff"/><stop offset="0.3" stop-color="#fff"/><stop offset="0.55" stop-color="#fff"/><stop offset="0.84" stop-color="#bdbcbc"/><stop offset="0.87" stop-color="#c7c6c6"/><stop offset="0.94" stop-color="#e2e2e2"/><stop offset="1" stop-color="#fff"/></linearGradient></defs><g class="cls-2"><g id="Camada_2" data-name="Camada 2"><g id="Camada_1-2" data-name="Camada 1"><g class="cls-3"><path class="cls-4" d="M84.28,32.54c.11,2,.23,7.2.23,9.08s0,7.54-.3,10l0,.2h9.06c4.46,0,9.17-1.39,9.17-5.35,0-2.47-1.79-4.31-5.15-5.31,2.49-.66,4.15-2.36,4.15-4.31,0-3.23-3.71-4.44-7.2-4.53h-10Zm7,2c3.78,0,5.16.8,5.16,2.86a2.17,2.17,0,0,1-.51,1.46A4.62,4.62,0,0,1,92,40h-.09l-1.06,2.75h1.06a6,6,0,0,1,4.83,1.74,2.76,2.76,0,0,1,.64,1.78c0,2.15-1.89,3.26-5.63,3.26-.63,0-1.65,0-2.29,0-.1-2.87-.15-6.76-.15-7.93,0-1.35.09-4.37.15-6.95a10.17,10.17,0,0,1,1.82-.15" transform="translate(-14.03 -14.03)"/><path class="cls-4" d="M123.34,32.36h-4.41l.18,4.92c.08,2.43.17,4.93.34,7.35a14.27,14.27,0,0,0-1.89-3.1c0-.07-4.59-7.12-6.18-9.12l0,0h-5.12v.19c.16,2,.23,7.19.23,9.07s0,7.54-.25,10l0,.19h4.56v-.19c-.26-4.76-.26-9.56-.26-14.22a6.66,6.66,0,0,0,1.08,2.12c.06.12,7.92,11.56,8.3,12.21l0,.08h3.65v-.19c-.27-2.5-.3-8.3-.3-10s.13-7,.25-9.07l.05-.19Z" transform="translate(-14.03 -14.03)"/><path class="cls-4" d="M128.61,32.54c.18,2,.25,7.2.25,9.08s0,7.53-.27,10v.19H134l0-.19c-.19-1.8-.29-5.23-.3-7.86l1,.05.77,0c7.14,0,10.61-1.89,10.61-5.86,0-4.53-4.87-5.56-8.93-5.65h-8.56Zm6.69,2.17c2.55,0,4.32.47,5.16,1.54a2.66,2.66,0,0,1,.6,1.76c0,2.82-3.17,3.43-5.82,3.43l-1.08-.06-.45-.05c0-.65,0-1.51,0-2.47,0-1.23,0-2.69.05-4a11.79,11.79,0,0,1,1.55-.12" transform="translate(-14.03 -14.03)"/><path class="cls-4" d="M156.45,32.54c.17,2,.27,7.2.27,9.08s0,7.53-.3,10v.19h5.43l0-.19c-.17-1.8-.27-5.23-.27-7.86l1,.05.79,0C170.45,43.87,174,42,174,38c0-4.53-4.9-5.56-9-5.65h-8.53Zm6.68,2.17c2.55,0,4.32.47,5.18,1.54A2.65,2.65,0,0,1,168.9,38c0,2.82-3.18,3.43-5.79,3.43L162,41.38l-.45-.05c0-.65,0-1.51,0-2.47,0-1.24,0-2.69,0-4a11,11,0,0,1,1.53-.12" transform="translate(-14.03 -14.03)"/><path class="cls-4" d="M181.21,32.36h-.07l0,.1c-1,2.77-7.52,17-8.55,19.15l-.09.25h4.63l0-.11c.41-1.34,1-2.85,1.55-4.45l3.86-.06,3.19,0,.67,0c.82,2.09,1.45,3.67,1.73,4.47l0,.09h5.35l-8.65-19.5h-3.66Zm1.32,5.74c.43.93,1.55,3.52,2.81,6.61h-.44l-2.37,0-2.87,0c1-2.47,2-4.7,2.87-6.61" transform="translate(-14.03 -14.03)"/><path class="cls-4" d="M195.7,32.54c.16,2,.23,7.2.23,9.08s0,7.54-.29,10v.2h5.46l0-.2c-.28-2.52-.31-8.31-.31-10,0-1.35.05-4.37.18-6.81.42,0,1.05-.1,1.48-.1,2.52,0,4.3.48,5.14,1.54a2.63,2.63,0,0,1,.58,1.76c0,2.25-2.1,3.39-4.06,3.49a5.48,5.48,0,0,1-1.14-.06l-.38-.06.21.36c1.93,2.82,4.83,7.72,6,10l0,.09h5.83l-.14-.27c-.24-.33-4-5.92-5.65-8.31l-.14-.14c3-.9,4.43-2.57,4.43-5.13,0-4.49-4.87-5.56-9-5.65h-8.49Z" transform="translate(-14.03 -14.03)"/><path class="cls-4" d="M222.38,32.36h-5.19l0,.19c.14,2,.24,7.19.24,9.07s0,7.52-.26,10l0,.19h5.39l0-.19c-.2-2.52-.27-8.31-.27-10s.13-7,.27-9.07v-.19Z" transform="translate(-14.03 -14.03)"/><path class="cls-4" d="M227.47,32.54c.15,2,.25,7.2.25,9.08s0,7.54-.28,10l0,.2h9.08c4.44,0,9.16-1.39,9.16-5.35,0-2.47-1.79-4.31-5.18-5.31,2.49-.66,4.17-2.36,4.17-4.31,0-3.23-3.71-4.44-7.17-4.53h-10Zm7,2h0c3.81,0,5.19.8,5.19,2.86a2.12,2.12,0,0,1-.52,1.46c-.68.87-2.15,1.32-3.93,1.2h-.09l-1.05,2.75h1.05a6,6,0,0,1,4.82,1.74,2.69,2.69,0,0,1,.67,1.78c0,2.15-1.9,3.26-5.66,3.26-.6,0-1.62,0-2.25,0-.16-2.87-.16-6.76-.16-7.93,0-1.35.05-4.37.16-6.95a9.5,9.5,0,0,1,1.77-.15" transform="translate(-14.03 -14.03)"/><path class="cls-4" d="M259,32.36h-3.65l0,.09c-1.09,2.95-8,17.9-8.54,19.14l-.11.27h4.65l0-.12c.39-1.34.92-2.84,1.53-4.48l3.84,0,3.2,0h.67c.84,2.1,1.47,3.69,1.74,4.48l.05.12h5.38l-8.65-19.5Zm-2.24,5.73c.44.91,1.55,3.5,2.81,6.61h-.43l-2.38,0-2.86,0c1-2.49,2-4.71,2.86-6.61" transform="translate(-14.03 -14.03)"/><path class="cls-4" d="M269.28,37.4c0,3.43,3.43,4.8,6.46,6.06,2.37.95,4.84,1.94,4.84,3.57a1.71,1.71,0,0,1-.37,1.2c-.57.67-1.72,1-3.55.85a16.51,16.51,0,0,1-6.15-1.7l-.9-.43V51.2l.62.15.35.06a23.87,23.87,0,0,0,5.5.8c5.73,0,9.14-2.28,9.14-6.06,0-3.54-3.52-4.92-6.64-6.16-2.3-.93-4.67-1.86-4.67-3.38,0-.44,0-1.71,3-1.71a15.56,15.56,0,0,1,5.52,1.35l1.1.46V32.45l-1.09-.2a24.45,24.45,0,0,0-4.88-.6c-4.94,0-8.23,2.34-8.23,5.75" transform="translate(-14.03 -14.03)"/><polygon class="cls-4" points="9.9 70.64 9.9 72.64 6.02 72.64 6.02 84.65 3.86 84.65 3.86 72.64 0 72.64 0 70.64 9.9 70.64"/><path class="cls-4" d="M28.37,88.86a5.13,5.13,0,0,1,3.08-1.06c1.92,0,3.12,1.06,3.12,3.38v7.5H32.39V91.62c0-1.3-.44-1.76-1.66-1.76a4.61,4.61,0,0,0-2.36.78v8H26.19V84.1l2.18-.4Z" transform="translate(-14.03 -14.03)"/><path class="cls-4" d="M39.29,94c.1,2.46,1.1,3.16,2.6,3.16a4.76,4.76,0,0,0,2.78-1l.34,1.7a6.18,6.18,0,0,1-3.56,1.16c-2.64,0-4.44-1.58-4.44-5.56s1.58-5.58,4.3-5.58,3.84,1.8,3.84,4.46V94Zm3.76-1.7c0-1.8-.52-2.64-1.78-2.64s-1.86.78-2,2.64Z" transform="translate(-14.03 -14.03)"/><path class="cls-4" d="M55.57,83.68v5.06a5.44,5.44,0,0,1,2.9-.94c1.72,0,3.54,1.08,3.54,5.46s-2,5.68-4.44,5.68a7.41,7.41,0,0,1-4.18-1.38V84.08Zm0,12.84a3.47,3.47,0,0,0,1.88.6c1.26,0,2.26-1,2.26-3.86s-1-3.5-2-3.5a3.74,3.74,0,0,0-2.14.74Z" transform="translate(-14.03 -14.03)"/><path class="cls-4" d="M69.45,91c0-1-.66-1.4-1.56-1.4a1.57,1.57,0,0,0-1.72,1.64l-1.92-.2C64.31,88.9,66,87.8,68,87.8c2.2,0,3.6,1.12,3.6,3v5.54c0,.5.24.72.58.72a1.78,1.78,0,0,0,1-.42l.14,1.58a2.64,2.64,0,0,1-1.84.7,1.6,1.6,0,0,1-1.78-1.48,3.9,3.9,0,0,1-3.06,1.48,2.63,2.63,0,0,1-2.84-2.88c0-2.72,2.6-3.84,5.58-3.82Zm0,2.86c-1.86-.06-3.42.62-3.42,2,0,.82.36,1.26,1.2,1.26a3.2,3.2,0,0,0,2.22-1.18Z" transform="translate(-14.03 -14.03)"/><path class="cls-4" d="M77.05,89a5.39,5.39,0,0,1,3.3-1.22c1.92,0,3.12,1.06,3.12,3.38v7.5H81.29V91.62c0-1.3-.44-1.76-1.66-1.76a4.61,4.61,0,0,0-2.36.78v8H75.09V88.06h2Z" transform="translate(-14.03 -14.03)"/><polygon class="cls-4" points="74.76 84.65 72.58 84.65 72.58 70.04 74.76 69.64 74.76 78.51 78.44 74.03 80.8 74.03 77.46 78.29 81.2 84.65 78.72 84.65 75.94 79.89 74.76 81.29 74.76 84.65"/><path class="cls-4" d="M104.77,100.3a2.48,2.48,0,0,1-2.68,2.62,4.5,4.5,0,0,1-2.1-.54l.34-1.74a3.3,3.3,0,0,0,1.26.34c.62,0,1-.3,1-1.1V89.82h-1.48V88.06h1.48v-.72c0-2.58,1.58-3.66,3.8-3.66a5.78,5.78,0,0,1,2,.34L108,85.78a4.28,4.28,0,0,0-1.5-.26,1.58,1.58,0,0,0-1.76,1.76v.78h2.62l-.26,1.76h-2.36Z" transform="translate(-14.03 -14.03)"/><path class="cls-4" d="M116.89,93.42c0,3.68-1.52,5.52-4.38,5.52s-4.4-1.6-4.4-5.56,1.54-5.58,4.4-5.58,4.38,1.6,4.38,5.62m-6.54,0c0,2.88.72,3.74,2.16,3.74s2.14-.86,2.14-3.7-.7-3.8-2.14-3.8-2.16.84-2.16,3.76" transform="translate(-14.03 -14.03)"/><path class="cls-4" d="M121.49,88.06v1a3.57,3.57,0,0,1,2.7-1.3c1.58,0,1.88,1.44,1.88,3l-1.86.22c0-.64-.08-1.08-.68-1.08a3,3,0,0,0-1.82,1.12v7.62h-2.18V88.06Z" transform="translate(-14.03 -14.03)"/><path class="cls-4" d="M138.47,91c0-1-.66-1.4-1.56-1.4a1.57,1.57,0,0,0-1.72,1.64l-1.92-.2c.06-2.16,1.78-3.26,3.78-3.26,2.2,0,3.6,1.12,3.6,3v5.54c0,.5.24.72.58.72a1.78,1.78,0,0,0,1-.42l.14,1.58a2.64,2.64,0,0,1-1.84.7,1.6,1.6,0,0,1-1.78-1.48,3.9,3.9,0,0,1-3.06,1.48,2.63,2.63,0,0,1-2.84-2.88c0-2.72,2.6-3.84,5.58-3.82Zm0,2.86c-1.86-.06-3.42.62-3.42,2,0,.82.36,1.26,1.2,1.26a3.2,3.2,0,0,0,2.22-1.18Z" transform="translate(-14.03 -14.03)"/><path class="cls-4" d="M154.89,91.64c-.06-1-.5-2-1.7-2s-1.92.76-1.92,3.76.9,3.74,2.48,3.74a4.42,4.42,0,0,0,2.68-1l.42,1.62a6,6,0,0,1-3.54,1.16c-2.76,0-4.32-1.74-4.32-5.58s1.34-5.56,4.28-5.56c2.56,0,3.54,1.58,3.58,3.64-.66.06-1.3.12-2,.2" transform="translate(-14.03 -14.03)"/><path class="cls-4" d="M161.63,88.86a5.13,5.13,0,0,1,3.08-1.06c1.92,0,3.12,1.06,3.12,3.38v7.5h-2.18V91.62c0-1.3-.44-1.76-1.66-1.76a4.61,4.61,0,0,0-2.36.78v8h-2.18V84.1l2.18-.4Z" transform="translate(-14.03 -14.03)"/><path class="cls-4" d="M175.85,91c0-1-.66-1.4-1.56-1.4a1.57,1.57,0,0,0-1.72,1.64l-1.92-.2c.06-2.16,1.78-3.26,3.78-3.26,2.2,0,3.6,1.12,3.6,3v5.54c0,.5.24.72.58.72a1.78,1.78,0,0,0,1-.42l.14,1.58a2.64,2.64,0,0,1-1.84.7,1.6,1.6,0,0,1-1.78-1.48,3.9,3.9,0,0,1-3.06,1.48,2.63,2.63,0,0,1-2.84-2.88c0-2.72,2.6-3.84,5.58-3.82Zm0,2.86c-1.86-.06-3.42.62-3.42,2,0,.82.36,1.26,1.2,1.26a3.2,3.2,0,0,0,2.22-1.18Z" transform="translate(-14.03 -14.03)"/><path class="cls-4" d="M183.45,89a5.39,5.39,0,0,1,3.3-1.22c1.92,0,3.12,1.06,3.12,3.38v7.5h-2.18V91.62c0-1.3-.44-1.76-1.66-1.76a4.61,4.61,0,0,0-2.36.78v8h-2.18V88.06h2Z" transform="translate(-14.03 -14.03)"/><path class="cls-4" d="M201.29,90l-1.46-.08a3,3,0,0,1,.52,1.94,3.76,3.76,0,0,1-3.88,4,3.31,3.31,0,0,1-1-.12c-.4.28-.66.46-.66.82,0,1.12,6.44-.2,6.44,3.62,0,2.3-2.42,3.42-5,3.42s-4.38-1-4.38-2.66a2.91,2.91,0,0,1,1.82-2.52,1.56,1.56,0,0,1-.9-1.5A2.4,2.4,0,0,1,194,95.1a3.89,3.89,0,0,1-1.44-3.26,3.74,3.74,0,0,1,3.94-4,4.48,4.48,0,0,1,1.52.26h3.28Zm-7.44,10.74c0,1,1.14,1.2,2.38,1.2s2.82-.54,2.82-1.46c0-1.3-1.8-1.28-3.44-1.5-.86.4-1.76,1-1.76,1.76m2.62-11.2c-1.16,0-1.88.66-1.88,2.3s.72,2.3,1.88,2.3,1.88-.66,1.88-2.3-.72-2.3-1.88-2.3" transform="translate(-14.03 -14.03)"/><path class="cls-4" d="M205.41,86.64h-2.18V84.28h2.18Zm0,12h-2.18V88.06h2.18Z" transform="translate(-14.03 -14.03)"/><path class="cls-4" d="M210.73,89A5.39,5.39,0,0,1,214,87.8c1.92,0,3.12,1.06,3.12,3.38v7.5H215V91.62c0-1.3-.44-1.76-1.66-1.76a4.61,4.61,0,0,0-2.36.78v8h-2.18V88.06h2Z" transform="translate(-14.03 -14.03)"/><path class="cls-4" d="M228.57,90l-1.46-.08a3,3,0,0,1,.52,1.94,3.76,3.76,0,0,1-3.88,4,3.31,3.31,0,0,1-1-.12c-.4.28-.66.46-.66.82,0,1.12,6.44-.2,6.44,3.62,0,2.3-2.42,3.42-5,3.42s-4.38-1-4.38-2.66a2.91,2.91,0,0,1,1.82-2.52A1.56,1.56,0,0,1,220,97a2.4,2.4,0,0,1,1.28-1.88,3.89,3.89,0,0,1-1.44-3.26,3.74,3.74,0,0,1,3.94-4,4.48,4.48,0,0,1,1.52.26h3.28Zm-7.44,10.74c0,1,1.14,1.2,2.38,1.2s2.82-.54,2.82-1.46c0-1.3-1.8-1.28-3.44-1.5-.86.4-1.76,1-1.76,1.76m2.62-11.2c-1.16,0-1.88.66-1.88,2.3s.72,2.3,1.88,2.3,1.88-.66,1.88-2.3-.72-2.3-1.88-2.3" transform="translate(-14.03 -14.03)"/><polygon class="cls-4" points="229.34 74.03 231.52 81.93 233.4 74.03 235.72 74.03 232.76 84.65 230.36 84.65 228.16 76.83 225.96 84.65 223.56 84.65 220.6 74.03 222.92 74.03 224.8 81.93 226.98 74.03 229.34 74.03"/><path class="cls-4" d="M259.69,93.42c0,3.68-1.52,5.52-4.38,5.52s-4.4-1.6-4.4-5.56,1.54-5.58,4.4-5.58,4.38,1.6,4.38,5.62m-6.54,0c0,2.88.72,3.74,2.16,3.74s2.14-.86,2.14-3.7-.7-3.8-2.14-3.8-2.16.84-2.16,3.76" transform="translate(-14.03 -14.03)"/><path class="cls-4" d="M264.29,88.06v1a3.57,3.57,0,0,1,2.7-1.3c1.58,0,1.88,1.44,1.88,3L267,91c0-.64-.08-1.08-.68-1.08a3,3,0,0,0-1.82,1.12v7.62h-2.18V88.06Z" transform="translate(-14.03 -14.03)"/><path class="cls-4" d="M273,83.68V96.24c0,.58.32.8.74.8a2.63,2.63,0,0,0,1.3-.42l.22,1.68a4.44,4.44,0,0,1-2.22.64c-1.78,0-2.22-1.3-2.22-2.7V84.08Z" transform="translate(-14.03 -14.03)"/><path class="cls-4" d="M282.91,97.42a4,4,0,0,1-3.06,1.52c-1.72,0-3.64-1.32-3.64-5.54S278,87.8,280,87.8a5.68,5.68,0,0,1,2.58.66V84.08l2.18-.4V96.36c0,.5.24.72.58.72a1.78,1.78,0,0,0,1-.42l.14,1.58a2.64,2.64,0,0,1-1.84.7,1.58,1.58,0,0,1-1.76-1.52m-.34-7.2a4.33,4.33,0,0,0-2.12-.6c-1,0-2,.66-2,3.68,0,2.6.88,3.64,1.84,3.64a3,3,0,0,0,2.24-1.2Z" transform="translate(-14.03 -14.03)"/></g><g class="cls-5"><rect class="cls-6" width="56.13" height="56.13"/></g><g class="cls-7"><rect class="cls-8" x="1.02" y="1" width="53.94" height="53.31"/></g><g class="cls-3"><g class="cls-9"><g class="cls-10"><g class="cls-11"><rect class="cls-12" x="1.02" y="1" width="53.94" height="53.31"/></g></g></g><path class="cls-13" d="M57.62,29.2c-3.48,2-4.53,2.19-8.3,4.46l.18-.43a38.32,38.32,0,0,0,4.14-5,85.41,85.41,0,0,0-12.13,1.39l.18-.38A51.43,51.43,0,0,1,54.14,25.7c-.75-1.07-6.91-4.4-8.44-5l.18-.39a40.37,40.37,0,0,1,13.54,4.36,22.11,22.11,0,0,1,4.42-.57s-.31,1.27-2.62,2.85c.57,1.53-.8,10-1.93,12.24,0-3.55-.36-8-1.67-9.95" transform="translate(-14.03 -14.03)"/><path class="cls-13" d="M32.26,59.54l.17-.4a14.76,14.76,0,0,1-5.17-2.68,14.58,14.58,0,0,1,1.88-3.62l.18-.4c-1.58.24-3,.82-4.39,1.09-1.08-1.9-1.5-4.49-2-7l-.18.39a23.79,23.79,0,0,0,0,7.1,25.33,25.33,0,0,0-3.06.76l-.17.38a40,40,0,0,0,4.31,2.36A14.65,14.65,0,0,0,27,62.2l.18-.4a8.46,8.46,0,0,1-.48-3.15,20.7,20.7,0,0,0,5.52.89" transform="translate(-14.03 -14.03)"/><path class="cls-13" d="M37.38,31.35A19.14,19.14,0,0,0,36,34.41H35.9a30.66,30.66,0,0,1,9.43,2.94l-.19.39a30.7,30.7,0,0,0-8.51-.56,6.47,6.47,0,0,0-2,.37,32.19,32.19,0,0,0-1.75,6.81l-.19.39c-.82-2-2-5.91-2-5.91C28.42,40.06,23.21,45,23.21,45A29.85,29.85,0,0,1,29,36.61c-1-1-3.62-1.53-5.54-1.61l.18-.39A29.22,29.22,0,0,1,29,34a28.45,28.45,0,0,1,3.15.05,15.61,15.61,0,0,1,5.27-2.74" transform="translate(-14.03 -14.03)"/><path class="cls-13" d="M42.87,56c-.91,1.22-1.68,2.2-2.67,3.32a19.76,19.76,0,0,1-4.62.27L35.4,60A11.83,11.83,0,0,0,38.51,61,24.2,24.2,0,0,1,35.66,63l-.18.39a22.67,22.67,0,0,0,5.78-2.17,10.89,10.89,0,0,0,2.34-.15l.18-.39c-.11-.39-.46-.64-.56-1.19a40.52,40.52,0,0,0,4.13-3.75l.18-.38A36.55,36.55,0,0,1,43,58.25c-.07-.76-.12-1.42-.16-2.27" transform="translate(-14.03 -14.03)"/><path class="cls-14" d="M57.79,28.8c-3.46,2-4.52,2.21-8.29,4.47a38.41,38.41,0,0,0,4.32-5.39,83,83,0,0,0-12.13,1.4,48.39,48.39,0,0,1,12.64-4c-.76-1.05-6.92-4.39-8.45-5,4.88.38,10.84,2.2,13.72,4A23.29,23.29,0,0,1,64,23.68a5.84,5.84,0,0,1-2.64,2.84c.58,1.53-.79,10-1.93,12.23,0-3.54-.35-8-1.68-9.95" transform="translate(-14.03 -14.03)"/><path class="cls-14" d="M32.43,59.14a13.6,13.6,0,0,1-5-3.07,15.6,15.6,0,0,1,1.89-3.63c-1.62.24-2.81.43-4.2.7a21.67,21.67,0,0,1-2.23-6.58,23.79,23.79,0,0,0,0,7.1,19.19,19.19,0,0,0-3.24,1.15,43.26,43.26,0,0,0,4.32,2.36,14.68,14.68,0,0,0,3.28,4.63,8.78,8.78,0,0,1-.3-3.54,20,20,0,0,0,5.51.88" transform="translate(-14.03 -14.03)"/><path class="cls-14" d="M37.62,31h0a11.78,11.78,0,0,0-1.54,3,25.46,25.46,0,0,1,9.25,3.33,29.9,29.9,0,0,0-8.53-.55,6.34,6.34,0,0,0-2,.36,35.58,35.58,0,0,0-1.94,7.2c-.81-2-2-5.91-2-5.91-2.26,1.21-7.47,6.1-7.47,6.1a29.55,29.55,0,0,1,5.77-8.33c-1-1-3.63-1.52-5.54-1.61a21.78,21.78,0,0,1,5.51-1,28.45,28.45,0,0,1,3.15.05A15.73,15.73,0,0,1,37.62,31" transform="translate(-14.03 -14.03)"/><path class="cls-14" d="M43.06,55.6c-.91,1.22-1.69,2.18-2.69,3.3a16.39,16.39,0,0,1-4.79.67,11.83,11.83,0,0,0,3.11,1.07,21,21,0,0,1-3,2.34,22.1,22.1,0,0,0,5.77-2.17,10.33,10.33,0,0,0,2.35-.15,11.69,11.69,0,0,1-.38-1.57,40.63,40.63,0,0,0,4.13-3.75,28.58,28.58,0,0,1-4.32,2.52c-.07-.76-.11-1.4-.15-2.26" transform="translate(-14.03 -14.03)"/></g></g></g></g></svg>