<svg xmlns="http://www.w3.org/2000/svg" viewBox="0 0 722.02 259.8"><defs><style>.cls-1{fill:#47c6ec;}.cls-2{fill:#fefefe;}</style></defs><g id="Camada_2" data-name="Camada 2"><g id="Camada_1-2" data-name="Camada 1"><path class="cls-1" d="M335.47,154.15c9-20.29,17.76-39.88,26.46-59.47,10.13-22.79,20.3-45.56,30.29-68.41,1.41-3.21,3.15-4.33,6.68-4.28,16.66.2,33.32.17,50,0,3.27,0,4.19.93,4.18,4.19q-.12,104.44,0,208.89c0,3-.74,4-3.89,4-17.32-.15-34.65-.19-52,0-3.78,0-4.27-1.43-4.25-4.66.11-24.15.06-48.3.06-72.46v-4.9l-.74-.31c-1.77,3.26-3.58,6.5-5.31,9.78-12,22.82-24.06,45.62-35.95,68.51-1.49,2.87-3,4-6.44,4-6.18,0-12.18,0-18.48,0-3.14.13-4.69-1.05-6.11-3.77-13.63-26.1-27.4-52.14-42.07-78.23V162c0,23.82-.1,47.64.09,71.46,0,4.15-.67,5.75-5.35,5.66-16.82-.32-33.65-.19-50.48-.06-3.11,0-4.32-.68-4.32-4.1q.15-104.44,0-208.88c0-2.89.61-4.11,3.83-4.08,17.16.14,34.32.22,51.47-.05,3.74-.06,4.4,2.18,5.46,4.55L333,148.7C333.62,150.22,334.34,151.71,335.47,154.15Z"/><path class="cls-1" d="M610.29.08c21.15,0,42.31.05,63.47,0a11.5,11.5,0,0,1,7.73,2.64c23,18.13,36.26,41.65,39.58,70.73,3,26.42-1,51.43-15.49,74.17-1.4,2.18-1.14,3.35.6,5,4.58,4.37,8.91,9,13.5,13.35,2,1.84,1.76,2.94-.07,4.74-10.1,9.93-20.15,19.91-30,30.06-2.36,2.43-3.57,1.77-5.51-.27-4.71-5-9.75-9.58-14.4-14.58-2.08-2.24-3.69-2.19-6.39-1-41.5,18.06-82.1,16.68-120.37-8.14-26.16-17-40.54-42.12-44.13-73.19-3.42-29.55,1.91-57,20.07-81.22A110.56,110.56,0,0,1,537.32,3.46,15.19,15.19,0,0,1,547.82,0C568.64.18,589.46.08,610.29.08Z"/><path class="cls-1" d="M.1,130.12C.1,95.81.18,61.5,0,27.19,0,23,1.09,22,5.23,22q81.71.21,163.41,0c4,0,5.48.73,5.4,5.09q-.42,22,0,44c.08,4.35-1.43,5.11-5.4,5.09-33.14-.15-66.29,0-99.44-.18C65,75.94,63.76,77,64,81.19a190.23,190.23,0,0,1,0,20c-.2,3.93,1.27,4.67,4.85,4.64,19-.15,38,.06,57-.17,4.26,0,5.3,1.3,5.22,5.38-.24,13.15-.2,26.31,0,39.47,0,3.5-1,4.52-4.5,4.49-19-.16-38,.06-57-.17-4.26-.06-5.63.86-5.58,5.41.25,24.32,0,48.64.2,72.95,0,3.82-.84,5.12-4.91,5.07q-27-.36-54,0c-4.09.05-5.32-1-5.3-5.18C.18,198.74.1,164.43.1,130.12Z"/><path class="cls-1" d="M541.63,259.8c35.76-27.66,100.37-28.35,136.79,0Z"/><path class="cls-2" d="M560.81,88.3c0-20.19,7.8-36.31,26.52-44.94,19.11-8.81,38-7.29,55,6.06,10.11,7.94,15.15,18.94,16.41,31.48,1.52,15-.69,29.37-11.1,41.21-13.87,15.76-31.54,19.72-51.25,14.85-18.71-4.62-29.92-17.08-34.38-35.73A53.38,53.38,0,0,1,560.81,88.3Z"/></g></g></svg>