<svg xmlns="http://www.w3.org/2000/svg" xmlns:xlink="http://www.w3.org/1999/xlink" viewBox="0 0 302.2 184.3"><defs><style>.a{isolation:isolate;}.b{fill:#ff6b00;}.c{opacity:0.35;mix-blend-mode:multiply;}.d{fill:url(#a);}.e{fill:url(#b);}.f{fill:url(#c);}.g{fill:url(#d);}.h{fill:url(#e);}.i{fill:url(#f);}.j{fill:url(#g);}.k{fill:url(#h);}.l{fill:url(#i);}.m{fill:url(#j);}.n{fill:#55565a;}</style><linearGradient id="a" x1="132.28" y1="30.75" x2="190.91" y2="89.39" gradientUnits="userSpaceOnUse"><stop offset="0" stop-color="#55565a"/><stop offset="1" stop-color="#55565a" stop-opacity="0"/></linearGradient><linearGradient id="b" x1="123.93" y1="39.1" x2="182.58" y2="97.74" xlink:href="#a"/><linearGradient id="c" x1="147.05" y1="15.97" x2="205.71" y2="74.62" xlink:href="#a"/><linearGradient id="d" x1="124.48" y1="38.55" x2="183.12" y2="97.19" xlink:href="#a"/><linearGradient id="e" x1="132.71" y1="30.32" x2="191.35" y2="88.97" xlink:href="#a"/><linearGradient id="f" x1="93.52" y1="69.51" x2="152.16" y2="128.15" xlink:href="#a"/><linearGradient id="g" x1="117.17" y1="45.85" x2="175.82" y2="104.5" xlink:href="#a"/><linearGradient id="h" x1="116.24" y1="46.78" x2="174.9" y2="105.43" xlink:href="#a"/><linearGradient id="i" x1="94.63" y1="68.4" x2="153.27" y2="127.05" xlink:href="#a"/><linearGradient id="j" x1="117.21" y1="45.8" x2="175.86" y2="104.45" xlink:href="#a"/></defs><title>rc_logo_rgb_main</title><g class="a"><path class="b" d="M132.9,39.2a7.7,7.7,0,0,0-7.8,7.8,7.7,7.7,0,0,0,2.3,5.5,7.3,7.3,0,0,0,5.5,2.4,7.9,7.9,0,0,0,7.9-7.9c0-3.9.5-6.3,1.4-7.2s3.3-1.4,7.3-1.4a7.7,7.7,0,0,0,7.8-7.8,7.9,7.9,0,0,0-.2-1.8l-1.4-.2h-5a42.5,42.5,0,0,0-8.9,1,8.4,8.4,0,0,0-.1,1.3q0,5.8-1.4,7.2T132.9,39.2Z"/><path class="b" d="M122,52.5a7.6,7.6,0,0,0,2.3-5.6c0-3.9.5-6.3,1.4-7.2s3.3-1.4,7.3-1.4a7.6,7.6,0,0,0,5.6-2.3,7.5,7.5,0,0,0,2.3-5.5,8,8,0,0,0-.1-1.1,42.6,42.6,0,0,0-28.7,23.8,7.8,7.8,0,0,0,10-.8Z"/><path class="b" d="M165.8,38.4a7.6,7.6,0,0,0,5.6-2.3,8.5,8.5,0,0,0,1.2-1.5A42.3,42.3,0,0,0,158.1,29a8.1,8.1,0,0,0-.1,1.6,7.5,7.5,0,0,0,2.3,5.5A7.6,7.6,0,0,0,165.8,38.4Z"/><path class="b" d="M149.4,71.3c3.9,0,6.4.5,7.3,1.4s1.4,3.3,1.4,7.2a7.6,7.6,0,0,0,2.3,5.6,7.8,7.8,0,1,0,5.5-13.4q-5.9,0-7.3-1.4t-1.4-7.2a7.6,7.6,0,0,0-2.3-5.6,7.5,7.5,0,0,0-5.5-2.3,7.9,7.9,0,0,0-7.9,7.9,7.5,7.5,0,0,0,2.3,5.5A7.6,7.6,0,0,0,149.4,71.3Z"/><path class="b" d="M165.8,55.7a7.7,7.7,0,0,0-5.5,2.3,7.3,7.3,0,0,0-2.4,5.5,7.9,7.9,0,0,0,15.7,0,7.5,7.5,0,0,0-2.3-5.5A7.6,7.6,0,0,0,165.8,55.7Z"/><path class="b" d="M120.1,95a7.5,7.5,0,0,0-3.7,1,42.7,42.7,0,0,0,10.7,10.2,8,8,0,0,0,.8-3.5,7.7,7.7,0,0,0-7.8-7.8Z"/><path class="b" d="M177,90.9a7.3,7.3,0,0,0-2.4,5.5c0,3.9-.5,6.4-1.4,7.3s-3.3,1.4-7.3,1.4a7.7,7.7,0,0,0-5.5,2.3,7.3,7.3,0,0,0-2.3,5.4A42.6,42.6,0,0,0,188,90.9a7.5,7.5,0,0,0-5.5-2.2A7.7,7.7,0,0,0,177,90.9Z"/><path class="b" d="M132.9,55.7a7.7,7.7,0,0,0-7.8,7.8,7.7,7.7,0,0,0,2.3,5.5,7.3,7.3,0,0,0,5.5,2.4,7.9,7.9,0,0,0,7.9-7.9,7.5,7.5,0,0,0-2.3-5.5A7.6,7.6,0,0,0,132.9,55.7Z"/><path class="b" d="M133.1,105.1a7.4,7.4,0,0,0-5,1.8,42.3,42.3,0,0,0,12.8,5.4,7.8,7.8,0,0,0-7.8-7.2Z"/><path class="b" d="M188,74.4a7.6,7.6,0,0,0-5.6-2.3,7.5,7.5,0,0,0-5.5,2.3,7.6,7.6,0,0,0-2.3,5.6c0,3.9-.5,6.4-1.4,7.3s-3.3,1.4-7.2,1.4a7.6,7.6,0,0,0-5.6,2.3,7.5,7.5,0,0,0-2.3,5.5c0,3.9-.5,6.4-1.4,7.3s-3.3,1.4-7.3,1.4a7.5,7.5,0,0,0-5.6,2.3,7.4,7.4,0,0,0-2.3,5.1,42.7,42.7,0,0,0,15.6.4c0-3.9.5-6.2,1.4-7.2s3.5-1.4,7.4-1.4a7.5,7.5,0,0,0,5.5-2.3,7.6,7.6,0,0,0,2.3-5.6q0-5.9,1.4-7.3t7.2-1.4a7.6,7.6,0,0,0,5.6-2.3,7.5,7.5,0,0,0,2.3-5.5A7.6,7.6,0,0,0,188,74.4Z"/><g class="c"><path class="d" d="M132.9,39.2a7.7,7.7,0,0,0-7.8,7.8,7.7,7.7,0,0,0,2.3,5.5,7.3,7.3,0,0,0,5.5,2.4,7.9,7.9,0,0,0,7.9-7.9c0-3.9.5-6.3,1.4-7.2s3.3-1.4,7.3-1.4a7.7,7.7,0,0,0,7.8-7.8,7.9,7.9,0,0,0-.2-1.8l-1.4-.2h-5a42.5,42.5,0,0,0-8.9,1,8.4,8.4,0,0,0-.1,1.3q0,5.8-1.4,7.2T132.9,39.2Z"/><path class="e" d="M122,52.5a7.6,7.6,0,0,0,2.3-5.6c0-3.9.5-6.3,1.4-7.2s3.3-1.4,7.3-1.4a7.6,7.6,0,0,0,5.6-2.3,7.5,7.5,0,0,0,2.3-5.5,8,8,0,0,0-.1-1.1,42.6,42.6,0,0,0-28.7,23.8,7.8,7.8,0,0,0,10-.8Z"/><path class="f" d="M165.8,38.4a7.6,7.6,0,0,0,5.6-2.3,8.5,8.5,0,0,0,1.2-1.5A42.3,42.3,0,0,0,158.1,29a8.1,8.1,0,0,0-.1,1.6,7.5,7.5,0,0,0,2.3,5.5A7.6,7.6,0,0,0,165.8,38.4Z"/><path class="g" d="M149.4,71.3c3.9,0,6.4.5,7.3,1.4s1.4,3.3,1.4,7.2a7.6,7.6,0,0,0,2.3,5.6,7.8,7.8,0,1,0,5.5-13.4q-5.9,0-7.3-1.4t-1.4-7.2a7.6,7.6,0,0,0-2.3-5.6,7.5,7.5,0,0,0-5.5-2.3,7.9,7.9,0,0,0-7.9,7.9,7.5,7.5,0,0,0,2.3,5.5A7.6,7.6,0,0,0,149.4,71.3Z"/><path class="h" d="M165.8,55.7a7.7,7.7,0,0,0-5.5,2.3,7.3,7.3,0,0,0-2.4,5.5,7.9,7.9,0,0,0,15.7,0,7.5,7.5,0,0,0-2.3-5.5A7.6,7.6,0,0,0,165.8,55.7Z"/><path class="i" d="M120.1,95a7.5,7.5,0,0,0-3.7,1,42.7,42.7,0,0,0,10.7,10.2,8,8,0,0,0,.8-3.5,7.7,7.7,0,0,0-7.8-7.8Z"/><path class="j" d="M177,90.9a7.3,7.3,0,0,0-2.4,5.5c0,3.9-.5,6.4-1.4,7.3s-3.3,1.4-7.3,1.4a7.7,7.7,0,0,0-5.5,2.3,7.3,7.3,0,0,0-2.3,5.4A42.6,42.6,0,0,0,188,90.9a7.5,7.5,0,0,0-5.5-2.2A7.7,7.7,0,0,0,177,90.9Z"/><path class="k" d="M132.9,55.7a7.7,7.7,0,0,0-7.8,7.8,7.7,7.7,0,0,0,2.3,5.5,7.3,7.3,0,0,0,5.5,2.4,7.9,7.9,0,0,0,7.9-7.9,7.5,7.5,0,0,0-2.3-5.5A7.6,7.6,0,0,0,132.9,55.7Z"/><path class="l" d="M133.1,105.1a7.4,7.4,0,0,0-5,1.8,42.3,42.3,0,0,0,12.8,5.4,7.8,7.8,0,0,0-7.8-7.2Z"/><path class="m" d="M188,74.4a7.6,7.6,0,0,0-5.6-2.3,7.5,7.5,0,0,0-5.5,2.3,7.6,7.6,0,0,0-2.3,5.6c0,3.9-.5,6.4-1.4,7.3s-3.3,1.4-7.2,1.4a7.6,7.6,0,0,0-5.6,2.3,7.5,7.5,0,0,0-2.3,5.5c0,3.9-.5,6.4-1.4,7.3s-3.3,1.4-7.3,1.4a7.5,7.5,0,0,0-5.6,2.3,7.4,7.4,0,0,0-2.3,5.1,42.7,42.7,0,0,0,15.6.4c0-3.9.5-6.2,1.4-7.2s3.5-1.4,7.4-1.4a7.5,7.5,0,0,0,5.5-2.3,7.6,7.6,0,0,0,2.3-5.6q0-5.9,1.4-7.3t7.2-1.4a7.6,7.6,0,0,0,5.6-2.3,7.5,7.5,0,0,0,2.3-5.5A7.6,7.6,0,0,0,188,74.4Z"/></g><path class="b" d="M41.2,143.8a7.6,7.6,0,0,0,5.6-7.7v-.3c0-5.4-3.7-8.3-10.7-8.3-2.3,0-5,.1-6.5.3s-1.2.3-1.2,1.2v25.8a1.1,1.1,0,0,0,1,1.1h2a1.1,1.1,0,0,0,1-1.1V144.4h4.4l6.5,10.8c.4.6.5.7,1.1.7H47a.7.7,0,0,0,.8-.7,1,1,0,0,0-.2-.5Zm1.5-7.9v.3c0,3.4-1.9,4.8-6.6,4.8H32.4v-9.4h3.7C40.8,131.3,42.7,132.6,42.7,135.8Z"/><path class="b" d="M65.3,127.8c-1.6-.2-5.2-.2-7.2-.2-5.6,0-8.2,2.3-8.2,7.2v13.9c0,4.9,2.6,7.2,8.2,7.2.9,0,5.5,0,7.2-.2h0a.9.9,0,0,0,.7-.9V153a.8.8,0,0,0-.8-.8H58.1c-3.8,0-4.2-1-4.2-3.5v-5.2H64.9a1.1,1.1,0,0,0,1.1-1.1V141a1.1,1.1,0,0,0-1.1-1.1H53.9v-5.2c0-2.5.4-3.5,4.2-3.5h7.1a.8.8,0,0,0,.8-.8v-1.8A.9.9,0,0,0,65.3,127.8Z"/><path class="b" d="M87.1,127.6H69.4a1.1,1.1,0,0,0-1.1,1v1.6a1,1,0,0,0,1.1,1h6.8v23.6a1.1,1.1,0,0,0,1,1.1h2a1.1,1.1,0,0,0,1-1.1V131.2h6.8a1,1,0,0,0,1.1-1v-1.6A1,1,0,0,0,87.1,127.6Z"/><path class="b" d="M101,127.6H98.9c-5.8,0-8.3,2.4-8.3,8v19.3a1.1,1.1,0,0,0,1,1.1h2a1.1,1.1,0,0,0,1-1.1V144.3h10.5v10.5a1.1,1.1,0,0,0,1,1.1h2a1.1,1.1,0,0,0,1-1.1V135.5C109.3,130,106.7,127.6,101,127.6Zm-6.3,8c0-3.7,1.1-4.3,4.2-4.3H101c3.1,0,4.2.7,4.2,4.3v5H94.7Z"/><path class="b" d="M116.6,127.6h-2a1,1,0,0,0-1,1.1v26.2a1.1,1.1,0,0,0,1,1.1h2a1.1,1.1,0,0,0,1-1.1V128.6A1,1,0,0,0,116.6,127.6Z"/><path class="b" d="M137.3,152.2h-7.1c-3.8,0-4.2-1-4.2-3.5v-20a1.1,1.1,0,0,0-1.1-1.1H123a1.1,1.1,0,0,0-1.1,1.1v20c0,6.4,4.1,7.2,8.2,7.2a62.5,62.5,0,0,0,7.2-.3h0a.9.9,0,0,0,.7-.9V153A.8.8,0,0,0,137.3,152.2Z"/><path class="n" d="M155,153.2h-.3c-1.2.1-4,.3-6.3.3a6.1,6.1,0,0,1-4.9-2.1c-1.4-1.6-2.1-4.1-2.1-7.4v-4.6c0-3.3.7-5.8,2.1-7.4a6.1,6.1,0,0,1,4.9-2.1c2.2,0,4.9.2,6.4.3h.2a.8.8,0,0,0,.9-.9V129a1.1,1.1,0,0,0-1.1-1h-.1a50.3,50.3,0,0,0-6.3-.4,8.7,8.7,0,0,0-6.5,2.6c-1.9,2-2.9,5.1-2.9,9.3V144c0,10.3,5.9,11.9,9.4,11.9a49.9,49.9,0,0,0,6.3-.4h.2a1.1,1.1,0,0,0,1.1-1V154A.8.8,0,0,0,155,153.2Z"/><path class="n" d="M166.7,127.6c-6.3,0-9.8,4.3-9.8,12v4.3c0,7.7,3.5,12,9.8,12s9.8-4.3,9.8-12v-4.3C176.5,131.8,173,127.6,166.7,127.6Zm7.4,12v4.3c0,6.4-2.5,9.6-7.4,9.6s-7.4-3.2-7.4-9.6v-4.3c0-6.4,2.5-9.6,7.4-9.6S174.1,133.2,174.1,139.6Z"/><path class="n" d="M188.9,127.6a69.2,69.2,0,0,0-8.5.6,1,1,0,0,0-.9,1.1v25.5a1,1,0,0,0,1,1.1h.3a1.1,1.1,0,0,0,1.1-1.1V130.3c1.9-.2,4.5-.4,6.9-.4,4.6,0,6.4,2.2,6.4,7.8v17.1a1.1,1.1,0,0,0,1,1.1h.4a1.1,1.1,0,0,0,1-1.1V137.7C197.8,130.9,194.9,127.6,188.9,127.6Z"/><path class="n" d="M210.4,140.7l-2.4-1.4c-3.2-2-4.8-3.2-4.8-5.3s1.9-4,6.5-4l3.7.2h1.7c.8,0,1.1-.5,1.1-.9v-.5a1,1,0,0,0-1-1h-.7c-1.5-.1-3.1-.3-4.8-.3-6,0-9,2.1-9,6.4s2.6,5.4,6,7.5l2.4,1.5c4,2.5,5.4,3.3,5.4,5.8a4.2,4.2,0,0,1-1.2,3.3c-1,1-2.7,1.5-5.2,1.5l-3.7-.2-1.8-.2h-.1c-1,0-1.1.7-1.1.9v.5a1,1,0,0,0,1,1h.9a43.3,43.3,0,0,0,4.9.3c6,0,9-2.4,9-7.2S214.4,143.1,210.4,140.7Z"/><path class="n" d="M237.3,127.6h-.3a1,1,0,0,0-1,1.1V153a48.4,48.4,0,0,1-7,.5c-2.4,0-4-.6-5-2s-1.4-3.1-1.4-5.9V128.7a1.1,1.1,0,0,0-1-1.1h-.4a1.1,1.1,0,0,0-1,1.1v17.1c0,6.8,2.9,10.2,8.8,10.2a45.6,45.6,0,0,0,8.6-.9,1,1,0,0,0,.8-1.1V128.7A1,1,0,0,0,237.3,127.6Z"/><path class="n" d="M255.7,153.6h-8.4c-1.7,0-2.4-.3-2.4-2.2V128.7a1.1,1.1,0,0,0-1-1.1h-.4a1.1,1.1,0,0,0-1,1.1v22.7c0,3.1,1.5,4.5,4.9,4.5h8.4a1.1,1.1,0,0,0,1.1-1v-.3A1,1,0,0,0,255.7,153.6Z"/><path class="n" d="M272.8,127.6H255.4a1.1,1.1,0,0,0-1.1,1v.3a1,1,0,0,0,1.1,1h7.5v24.9a1.1,1.1,0,0,0,1,1.1h.4a1.1,1.1,0,0,0,1-1.1V129.9h7.5a1,1,0,0,0,1.1-1v-.3A1,1,0,0,0,272.8,127.6Z"/></g></svg>