<svg id="Layer_1" data-name="Layer 1" xmlns="http://www.w3.org/2000/svg" viewBox="0 0 538.02 133.62"><defs><style>.cls-1{fill:#0962a4;}</style></defs><path class="cls-1" d="M254.15,92.2a15,15,0,0,1-6.25,5.36,21.79,21.79,0,0,1-9.42,1.91,18.93,18.93,0,0,1-10-2.56,16.49,16.49,0,0,1-6.46-7.3,25.85,25.85,0,0,1-2.24-11.18V75.77a25.39,25.39,0,0,1,2.31-11.18,17.19,17.19,0,0,1,6.55-7.35,18.66,18.66,0,0,1,9.87-2.57,20.93,20.93,0,0,1,9.48,2,14.81,14.81,0,0,1,6.13,5.46,18.24,18.24,0,0,1,2.61,8.06h-9.67a8.86,8.86,0,0,0-2.23-5.88c-1.31-1.29-3.41-1.93-6.32-1.93a7.57,7.57,0,0,0-6.72,3.23q-2.21,3.24-2.2,10.12v2.72a26.3,26.3,0,0,0,.9,7.56,8.16,8.16,0,0,0,2.84,4.35,8.45,8.45,0,0,0,5.15,1.44q4.17,0,6.22-1.84A8.05,8.05,0,0,0,247,84.27h9.66A16.32,16.32,0,0,1,254.15,92.2Z" transform="translate(-49.96 -50.48)"/><path class="cls-1" d="M282.5,66a8.44,8.44,0,0,1,1.29.25L283.67,75a25,25,0,0,0-3.3-.24q-5,0-6.52,3.2V98.87h-9.32V66.49h8.77l.28,3.92a9.05,9.05,0,0,1,3.13-3.35A8,8,0,0,1,281,65.89,11.82,11.82,0,0,1,282.5,66Z" transform="translate(-49.96 -50.48)"/><path class="cls-1" d="M299.24,54.77a4.62,4.62,0,0,1,0,6.68,5.41,5.41,0,0,1-3.78,1.3,5.33,5.33,0,0,1-3.75-1.3,4.59,4.59,0,0,1,0-6.68,5.38,5.38,0,0,1,3.75-1.3A5.46,5.46,0,0,1,299.24,54.77Zm-8.41,44.1V66.49h9.35V98.87Z" transform="translate(-49.96 -50.48)"/><path class="cls-1" d="M326.88,91.84v6.79a16.68,16.68,0,0,1-5.5.84q-9.81,0-9.81-9.7V73.07h-4.72V66.49h4.72v-8h9.32v8h5.62v6.58h-5.62V88.73a3.52,3.52,0,0,0,.77,2.62,3.93,3.93,0,0,0,2.62.7A13.87,13.87,0,0,0,326.88,91.84Z" transform="translate(-49.96 -50.48)"/><path class="cls-1" d="M342.69,54.77a4.59,4.59,0,0,1,0,6.68,6.1,6.1,0,0,1-7.53,0,4.62,4.62,0,0,1,0-6.68,6.1,6.1,0,0,1,7.53,0Zm-8.41,44.1V66.49h9.36V98.87Z" transform="translate(-49.96 -50.48)"/><path class="cls-1" d="M378.76,87.53a10.72,10.72,0,0,1-1.85,6.16,12.37,12.37,0,0,1-5,4.25,15.92,15.92,0,0,1-7,1.53,16.17,16.17,0,0,1-8.52-2.12,13.39,13.39,0,0,1-5.23-5.84,19.65,19.65,0,0,1-1.74-8.44v-.78a19.68,19.68,0,0,1,1.74-8.44A13.29,13.29,0,0,1,356.34,68a15.9,15.9,0,0,1,8.47-2.13,16.5,16.5,0,0,1,7.27,1.54A11.56,11.56,0,0,1,377,71.86a12.79,12.79,0,0,1,1.76,6.81H370a5.79,5.79,0,0,0-1.45-4,5.09,5.09,0,0,0-4-1.56c-2.26,0-3.81.83-4.66,2.47a14.79,14.79,0,0,0-1.26,6.66v.78a14.84,14.84,0,0,0,1.25,6.7q1.24,2.43,4.74,2.43a5.69,5.69,0,0,0,3.86-1.26A4.38,4.38,0,0,0,370,87.53Z" transform="translate(-49.96 -50.48)"/><path class="cls-1" d="M412.53,95.34a10.83,10.83,0,0,0,1,3v.51h-9.36a9.27,9.27,0,0,1-.89-2.9,10.78,10.78,0,0,1-8.37,3.5,13,13,0,0,1-5.74-1.26,10.09,10.09,0,0,1-4.09-3.47,8.76,8.76,0,0,1-1.49-5,9,9,0,0,1,3.92-7.88q3.92-2.77,11.54-2.77h3.8V77.27a4.85,4.85,0,0,0-1.18-3.49,4.59,4.59,0,0,0-3.51-1.24,5.09,5.09,0,0,0-3.32,1,3.35,3.35,0,0,0-1.19,2.77h-9.32A8.58,8.58,0,0,1,386.12,71a11.87,11.87,0,0,1,5-3.74,19.14,19.14,0,0,1,7.52-1.38,17.92,17.92,0,0,1,7,1.29A10.52,10.52,0,0,1,410.46,71a11,11,0,0,1,1.73,6.28V90.88A23.35,23.35,0,0,0,412.53,95.34Zm-11.92-3.57a5.81,5.81,0,0,0,2.26-2.08V84.27h-3.55a7.27,7.27,0,0,0-4.83,1.36,4.45,4.45,0,0,0-1.59,3.55A3.11,3.11,0,0,0,394,91.66a4.49,4.49,0,0,0,3,1A7.37,7.37,0,0,0,400.61,91.77Z" transform="translate(-49.96 -50.48)"/><path class="cls-1" d="M419.29,98.87v-46h9.35v46Z" transform="translate(-49.96 -50.48)"/><path class="cls-1" d="M262.12,120.34c1.71,1.77,2.56,4.53,2.56,8.3v19.44H261.3V128.61c0-3-.64-5-1.92-6.26a7.68,7.68,0,0,0-5.48-1.82,9.2,9.2,0,0,0-4.73,1.18,8.81,8.81,0,0,0-3.12,3,8.47,8.47,0,0,0-1.28,3.67v19.74h-3.41V128.34c0-2.81-.65-4.82-2-6a7.83,7.83,0,0,0-5.53-1.8,8.32,8.32,0,0,0-5.78,2,11.11,11.11,0,0,0-3.17,5v20.51h-3.42V118.25h3.3l.09,4.82a11.43,11.43,0,0,1,4.13-4,11.89,11.89,0,0,1,5.85-1.42,11.28,11.28,0,0,1,5.86,1.41,7.71,7.71,0,0,1,3.35,4.36,11.47,11.47,0,0,1,4.25-4.19,12.27,12.27,0,0,1,6.27-1.58C257.91,117.69,260.41,118.58,262.12,120.34Z" transform="translate(-49.96 -50.48)"/><path class="cls-1" d="M295.72,145.1a9.52,9.52,0,0,0,.7,2.62v.36h-3.64a14.9,14.9,0,0,1-.69-4.16,12.52,12.52,0,0,1-4.33,3.4,13.64,13.64,0,0,1-6.07,1.31,11.75,11.75,0,0,1-5.21-1.09,8.24,8.24,0,0,1-3.48-3,7.84,7.84,0,0,1-1.24-4.35,7.94,7.94,0,0,1,1.69-5,10.69,10.69,0,0,1,4.87-3.28,22,22,0,0,1,7.46-1.14h6.29v-3.36a6.39,6.39,0,0,0-2.07-5.06,8.5,8.5,0,0,0-5.87-1.84,10.45,10.45,0,0,0-4.22.82,7.25,7.25,0,0,0-3,2.19,4.84,4.84,0,0,0-1.06,3l-3.42,0A7,7,0,0,1,274,122.2a10.55,10.55,0,0,1,4.21-3.26,14.37,14.37,0,0,1,6.08-1.25,14.83,14.83,0,0,1,5.86,1.09,8.65,8.65,0,0,1,3.94,3.27,9.65,9.65,0,0,1,1.41,5.35v14.42A22.42,22.42,0,0,0,295.72,145.1Zm-7.46-1a9.66,9.66,0,0,0,3.81-4.23v-6.59h-5.83a19.36,19.36,0,0,0-6,.8,8.37,8.37,0,0,0-3.81,2.28,5.2,5.2,0,0,0-1.32,3.56,5.3,5.3,0,0,0,.85,3,5.94,5.94,0,0,0,2.42,2.1,8.16,8.16,0,0,0,3.64.77A11.57,11.57,0,0,0,288.26,144.07Z" transform="translate(-49.96 -50.48)"/><path class="cls-1" d="M325.27,120.31q2.5,2.63,2.51,8.33v19.44h-3.41V128.64q0-4.41-1.85-6.26a7.32,7.32,0,0,0-5.4-1.85,8.46,8.46,0,0,0-5.69,2,12,12,0,0,0-3.47,5v20.49h-3.41V118.25h3.27l.11,5a12.25,12.25,0,0,1,4.24-4.11,11.46,11.46,0,0,1,5.8-1.49C321.16,117.69,323.59,118.57,325.27,120.31Z" transform="translate(-49.96 -50.48)"/><path class="cls-1" d="M359.72,118.25v29.83h-3.27l-.09-3.78q-3,4.33-9.78,4.33a10,10,0,0,1-7.45-2.71q-2.67-2.73-2.67-8.59V118.25h3.41v19.13q0,4.47,1.95,6.43a7,7,0,0,0,5.16,1.95,10.65,10.65,0,0,0,6.15-1.58,8.1,8.1,0,0,0,3.17-4.32V118.25Z" transform="translate(-49.96 -50.48)"/><path class="cls-1" d="M376,109.74a6.77,6.77,0,0,0-1.58,4.78v3.73h7.36V121h-7.36v27.13H371V121h-5.12v-2.7H371v-3.73q0-4.48,2.4-6.93a8.91,8.91,0,0,1,6.67-2.44,13.8,13.8,0,0,1,3.64.47l-.26,2.76a13.29,13.29,0,0,0-3.13-.34A5.66,5.66,0,0,0,376,109.74Z" transform="translate(-49.96 -50.48)"/><path class="cls-1" d="M410.24,145.1a9.93,9.93,0,0,0,.69,2.62v.36h-3.64a14.59,14.59,0,0,1-.68-4.16,12.56,12.56,0,0,1-4.34,3.4,13.58,13.58,0,0,1-6.07,1.31,11.73,11.73,0,0,1-5.2-1.09,8.33,8.33,0,0,1-3.49-3,8.34,8.34,0,0,1,.46-9.39,10.71,10.71,0,0,1,4.86-3.28,22.1,22.1,0,0,1,7.47-1.14h6.28v-3.36a6.42,6.42,0,0,0-2.06-5.06,8.5,8.5,0,0,0-5.87-1.84,10.42,10.42,0,0,0-4.22.82,7.18,7.18,0,0,0-3,2.19,4.85,4.85,0,0,0-1.07,3l-3.41,0a7,7,0,0,1,1.51-4.26,10.52,10.52,0,0,1,4.2-3.26,14.41,14.41,0,0,1,6.09-1.25,14.83,14.83,0,0,1,5.86,1.09,8.65,8.65,0,0,1,3.94,3.27,9.65,9.65,0,0,1,1.4,5.35v14.42A21.12,21.12,0,0,0,410.24,145.1Zm-7.47-1a9.66,9.66,0,0,0,3.81-4.23v-6.59h-5.83a19.41,19.41,0,0,0-6,.8,8.48,8.48,0,0,0-3.81,2.28,5.2,5.2,0,0,0-1.32,3.56,5.38,5.38,0,0,0,.85,3,6,6,0,0,0,2.42,2.1,8.19,8.19,0,0,0,3.64.77A11.55,11.55,0,0,0,402.77,144.07Z" transform="translate(-49.96 -50.48)"/><path class="cls-1" d="M442.27,138.84a9.16,9.16,0,0,1-1.76,5,11,11,0,0,1-4.28,3.51,13.43,13.43,0,0,1-5.76,1.25,12.8,12.8,0,0,1-7.17-1.94,12.15,12.15,0,0,1-4.46-5.31,18.41,18.41,0,0,1-1.51-7.64v-1.16a18.41,18.41,0,0,1,1.51-7.62,12.12,12.12,0,0,1,4.46-5.32,12.62,12.62,0,0,1,7.11-2,13.43,13.43,0,0,1,5.95,1.3,10.27,10.27,0,0,1,4.2,3.71,10.86,10.86,0,0,1,1.71,5.58H439a8.3,8.3,0,0,0-1.3-4.12,7.58,7.58,0,0,0-3.07-2.7,9.34,9.34,0,0,0-4.25-.95,8.83,8.83,0,0,0-5.5,1.64,9.47,9.47,0,0,0-3.19,4.37,17.43,17.43,0,0,0-1,6.06v1.16a17.66,17.66,0,0,0,1,6.08,9.33,9.33,0,0,0,3.19,4.36,9,9,0,0,0,5.57,1.64,10.25,10.25,0,0,0,4.08-.81,7.74,7.74,0,0,0,3.1-2.39,7,7,0,0,0,1.38-3.78Z" transform="translate(-49.96 -50.48)"/><path class="cls-1" d="M461.32,148.19a9.3,9.3,0,0,1-1.6.32,17.32,17.32,0,0,1-2,.12,6.62,6.62,0,0,1-4.94-1.79q-1.77-1.8-1.77-6V121h-5.63v-2.7H451v-7.67h3.44v7.67h6.34V121h-6.34V140.8c0,1.91.36,3.21,1.07,3.9a4,4,0,0,0,2.91,1,16.6,16.6,0,0,0,2.79-.31Z" transform="translate(-49.96 -50.48)"/><path class="cls-1" d="M491,118.25v29.83h-3.27l-.08-3.78q-3,4.33-9.78,4.33a10,10,0,0,1-7.45-2.71q-2.68-2.73-2.68-8.59V118.25h3.41v19.13q0,4.47,1.95,6.43a7,7,0,0,0,5.16,1.95,10.71,10.71,0,0,0,6.16-1.58,8.15,8.15,0,0,0,3.17-4.32V118.25Z" transform="translate(-49.96 -50.48)"/><path class="cls-1" d="M514.05,121a15.72,15.72,0,0,0-2.28-.19,8.33,8.33,0,0,0-5.49,1.79,9.58,9.58,0,0,0-3,4.88v20.57h-3.41V118.25h3.32l.09,4.68a9.69,9.69,0,0,1,3.46-3.86,9.85,9.85,0,0,1,6.44-1.28,5.13,5.13,0,0,1,1,.24Z" transform="translate(-49.96 -50.48)"/><path class="cls-1" d="M523.3,108a2.13,2.13,0,0,1,.64,1.6,2.05,2.05,0,0,1-.64,1.55,2.33,2.33,0,0,1-1.72.62,2.3,2.3,0,0,1-1.69-.62,2.05,2.05,0,0,1-.64-1.55,2.13,2.13,0,0,1,.64-1.6,2.28,2.28,0,0,1,1.69-.64A2.3,2.3,0,0,1,523.3,108Zm-3.42,40.06V118.25h3.38v29.83Z" transform="translate(-49.96 -50.48)"/><path class="cls-1" d="M553.25,120.31q2.5,2.63,2.51,8.33v19.44h-3.41V128.64q0-4.41-1.85-6.26a7.32,7.32,0,0,0-5.4-1.85,8.46,8.46,0,0,0-5.69,2,12,12,0,0,0-3.47,5v20.49h-3.41V118.25h3.27l.11,5a12.25,12.25,0,0,1,4.24-4.11,11.46,11.46,0,0,1,5.8-1.49C549.14,117.69,551.57,118.57,553.25,120.31Z" transform="translate(-49.96 -50.48)"/><path class="cls-1" d="M588,118.25v29.31a13.79,13.79,0,0,1-1.52,6.64,10.27,10.27,0,0,1-4.31,4.3,13.66,13.66,0,0,1-6.51,1.49,14.54,14.54,0,0,1-6-1.32,11.65,11.65,0,0,1-4.73-3.78l1.91-2a12.09,12.09,0,0,0,3.95,3.25,10.38,10.38,0,0,0,4.66,1.05,8.87,8.87,0,0,0,6.74-2.51,9.76,9.76,0,0,0,2.39-7v-3.48a10.73,10.73,0,0,1-4,3.28,12.67,12.67,0,0,1-5.58,1.16,10.44,10.44,0,0,1-6.25-1.92,12.13,12.13,0,0,1-4.11-5.36,20.28,20.28,0,0,1-1.44-7.88v-.58a20.88,20.88,0,0,1,1.43-8,11.64,11.64,0,0,1,4.09-5.29,10.76,10.76,0,0,1,6.34-1.87A11.9,11.9,0,0,1,580.7,119a10.74,10.74,0,0,1,4,3.6l.14-4.3Zm-6.79,26a9.67,9.67,0,0,0,3.38-4V126.46a10.18,10.18,0,0,0-3.23-4.26,9,9,0,0,0-5.61-1.64,8,8,0,0,0-5.07,1.6,9.44,9.44,0,0,0-3,4.37,18.87,18.87,0,0,0-1,6.36v.58a18.88,18.88,0,0,0,1,6.34,9.43,9.43,0,0,0,3,4.37,7.92,7.92,0,0,0,5,1.58A9.7,9.7,0,0,0,581.19,144.29Z" transform="translate(-49.96 -50.48)"/><path class="cls-1" d="M228.2,177.66a4.69,4.69,0,0,0,.32,1.12V179h-2.19a4.57,4.57,0,0,1-.3-1.24,4.83,4.83,0,0,1-1.51,1.06,4.74,4.74,0,0,1-1.94.39,4.82,4.82,0,0,1-2.15-.46,3.58,3.58,0,0,1-1.45-1.26,3.2,3.2,0,0,1-.51-1.76,3.37,3.37,0,0,1,.67-2.13,4,4,0,0,1,1.9-1.31,8.71,8.71,0,0,1,2.9-.44H226v-.94a2.19,2.19,0,0,0-.66-1.69,2.67,2.67,0,0,0-1.89-.62,3.42,3.42,0,0,0-1.35.26,2.3,2.3,0,0,0-.93.68,1.52,1.52,0,0,0-.33.94h-2.1a2.71,2.71,0,0,1,.61-1.67,4.2,4.2,0,0,1,1.71-1.31,5.89,5.89,0,0,1,2.51-.51,6,6,0,0,1,2.37.44,3.58,3.58,0,0,1,1.59,1.33,3.94,3.94,0,0,1,.57,2.17v5.49A8,8,0,0,0,228.2,177.66Zm-4-.47a3.56,3.56,0,0,0,1.07-.65,3.08,3.08,0,0,0,.69-.87v-2.44h-1.71a5.65,5.65,0,0,0-2.75.54,1.78,1.78,0,0,0-1,1.63,2,2,0,0,0,.27,1,1.85,1.85,0,0,0,.79.72,2.67,2.67,0,0,0,1.26.27A3.71,3.71,0,0,0,224.23,177.19Z" transform="translate(-49.96 -50.48)"/><path class="cls-1" d="M240.92,171.23V179h-2.1v-7.75a2.72,2.72,0,0,0-.6-2,2.44,2.44,0,0,0-1.82-.61,3.06,3.06,0,0,0-1.73.51,3.68,3.68,0,0,0-1.22,1.37V179h-2.1V167.17h2l.06,1.45A4.63,4.63,0,0,1,237,167Q240.92,167,240.92,171.23Z" transform="translate(-49.96 -50.48)"/><path class="cls-1" d="M259.12,174.81H252.3L250.75,179h-2.24l6.24-15.87h1.91L262.92,179h-2.23Zm-.64-1.72-2.77-7.4-2.77,7.4Z" transform="translate(-49.96 -50.48)"/><path class="cls-1" d="M266,170a3.5,3.5,0,0,1-1.35-2.85,3.74,3.74,0,0,1,.69-2.21,4.56,4.56,0,0,1,2-1.54,7,7,0,0,1,2.9-.56,6.81,6.81,0,0,1,3.1.66,4.88,4.88,0,0,1,2,1.77,4.35,4.35,0,0,1,.69,2.36H273.8a2.93,2.93,0,0,0-.91-2.24,4.77,4.77,0,0,0-5.19-.14,2.33,2.33,0,0,0-.86,1.87,1.83,1.83,0,0,0,.4,1.18,3.4,3.4,0,0,0,1.22.93,12.19,12.19,0,0,0,2.19.79,13.44,13.44,0,0,1,3.06,1.17,4.81,4.81,0,0,1,1.75,1.56,4,4,0,0,1,.56,2.13,3.69,3.69,0,0,1-.7,2.24,4.43,4.43,0,0,1-2,1.49,8,8,0,0,1-3,.52,7.93,7.93,0,0,1-3-.56A5.44,5.44,0,0,1,265,177a4,4,0,0,1-.88-2.6h2.17a2.74,2.74,0,0,0,.55,1.74,3.23,3.23,0,0,0,1.45,1,5.79,5.79,0,0,0,2,.33,4.33,4.33,0,0,0,2.6-.67,2.18,2.18,0,0,0,.92-1.85,2.33,2.33,0,0,0-.33-1.29,2.85,2.85,0,0,0-1.16-.94,13.67,13.67,0,0,0-2.4-.86A10.89,10.89,0,0,1,266,170Z" transform="translate(-49.96 -50.48)"/><path class="cls-1" d="M295.08,179h-2.17v-6.2l.2-6.62L287.75,179H286.1l-5.35-12.81.21,6.61V179h-2.17V163.09h2.81l5.33,13,5.34-13h2.81Z" transform="translate(-49.96 -50.48)"/><path class="cls-1" d="M313.75,163.71a4.5,4.5,0,0,1,2,1.7,4.7,4.7,0,0,1,.67,2.52,4.88,4.88,0,0,1-.66,2.6,4.12,4.12,0,0,1-2,1.64,7.72,7.72,0,0,1-3.13.56h-3.86V179H304.6V163.09h6A7.22,7.22,0,0,1,313.75,163.71Zm-.42,6.5a3,3,0,0,0,.87-2.26,3.31,3.31,0,0,0-.37-1.57,2.79,2.79,0,0,0-1.18-1.15,4.33,4.33,0,0,0-2-.43h-3.86V171h3.86A3.8,3.8,0,0,0,313.33,170.21Z" transform="translate(-49.96 -50.48)"/><path class="cls-1" d="M330.43,164.8h-5.25V179H323V164.8h-5.23v-1.71h12.64Z" transform="translate(-49.96 -50.48)"/><path class="cls-1" d="M347.31,175.23a3.45,3.45,0,0,1-.73,1.94,4.64,4.64,0,0,1-1.77,1.46,5.23,5.23,0,0,1-2.35.54,5.32,5.32,0,0,1-3-.79,4.84,4.84,0,0,1-1.83-2.12,7.16,7.16,0,0,1-.6-3v-.46a7.16,7.16,0,0,1,.6-3,5,5,0,0,1,1.83-2.12,5.9,5.9,0,0,1,5.46-.23,4.28,4.28,0,0,1,2.37,3.71h-2a2.9,2.9,0,0,0-.43-1.33,2.71,2.71,0,0,0-1-1,3,3,0,0,0-1.44-.35,3,3,0,0,0-1.94.61,3.23,3.23,0,0,0-1.06,1.56,6.58,6.58,0,0,0-.31,2.08v.46a5.5,5.5,0,0,0,.77,3,2.78,2.78,0,0,0,2.54,1.22,3.19,3.19,0,0,0,1.37-.3,2.84,2.84,0,0,0,1-.83,2.21,2.21,0,0,0,.46-1.18Z" transform="translate(-49.96 -50.48)"/><path class="cls-1" d="M349.78,169.87a5.11,5.11,0,0,1,1.92-2.14,5.89,5.89,0,0,1,5.86,0,5.06,5.06,0,0,1,1.93,2.14,6.82,6.82,0,0,1,.68,3.07v.25a6.82,6.82,0,0,1-.68,3.07,5.08,5.08,0,0,1-1.92,2.13,5.89,5.89,0,0,1-5.86,0,5.17,5.17,0,0,1-1.93-2.13,6.82,6.82,0,0,1-.68-3.07v-.25A6.82,6.82,0,0,1,349.78,169.87Zm1.81,5.51a3.61,3.61,0,0,0,1.16,1.58,3.35,3.35,0,0,0,3.77,0,3.61,3.61,0,0,0,1.16-1.58,5.93,5.93,0,0,0,.39-2.19v-.25a5.73,5.73,0,0,0-.4-2.19,3.61,3.61,0,0,0-1.16-1.58,3.06,3.06,0,0,0-1.89-.59,3,3,0,0,0-1.87.59,3.53,3.53,0,0,0-1.16,1.58,5.93,5.93,0,0,0-.39,2.19v.25A5.93,5.93,0,0,0,351.59,175.38Z" transform="translate(-49.96 -50.48)"/><path class="cls-1" d="M378.78,168a4.47,4.47,0,0,1,1,3.23V179h-2.1v-7.77a2.51,2.51,0,0,0-.66-2,3.39,3.39,0,0,0-3.34-.24,2.42,2.42,0,0,0-.95.9,3,3,0,0,0-.42,1.27V179h-2.1V171.2a2.28,2.28,0,0,0-2.6-2.56,3.17,3.17,0,0,0-1.73.44,2.68,2.68,0,0,0-1,1.23V179h-2.11V167.17h2l.07,1.27a4.23,4.23,0,0,1,1.53-1.1,5.1,5.1,0,0,1,2-.39,4.53,4.53,0,0,1,2.11.46,3.07,3.07,0,0,1,1.37,1.41,4.47,4.47,0,0,1,1.61-1.37,4.94,4.94,0,0,1,2.25-.5A4.16,4.16,0,0,1,378.78,168Z" transform="translate(-49.96 -50.48)"/><path class="cls-1" d="M391.06,167.7a4.52,4.52,0,0,1,1.61,2.1,8.3,8.3,0,0,1,.55,3.16v.23a8.07,8.07,0,0,1-.55,3.09,4.8,4.8,0,0,1-1.62,2.13,4.21,4.21,0,0,1-2.53.76,4.52,4.52,0,0,1-3.47-1.35v5.67h-2.11V167.17h1.91l.12,1.28a4.84,4.84,0,0,1,6.09-.75Zm.06,5.26a6.29,6.29,0,0,0-.35-2.19,3.39,3.39,0,0,0-1.09-1.55,2.84,2.84,0,0,0-1.83-.58,3.09,3.09,0,0,0-1.68.43,3.21,3.21,0,0,0-1.12,1.19v5.68a3,3,0,0,0,2.83,1.6,2.81,2.81,0,0,0,1.81-.58,3.51,3.51,0,0,0,1.08-1.57,6.31,6.31,0,0,0,.35-2.2Z" transform="translate(-49.96 -50.48)"/><path class="cls-1" d="M405.25,177.66a4.72,4.72,0,0,0,.31,1.12V179h-2.19a4.62,4.62,0,0,1-.29-1.24,4.83,4.83,0,0,1-1.51,1.06,5.14,5.14,0,0,1-4.09-.07,3.52,3.52,0,0,1-1.45-1.26,3.2,3.2,0,0,1-.51-1.76,3.37,3.37,0,0,1,.67-2.13,4,4,0,0,1,1.89-1.31,8.73,8.73,0,0,1,2.91-.44h2v-.94a2.22,2.22,0,0,0-.65-1.69,2.68,2.68,0,0,0-1.9-.62,3.34,3.34,0,0,0-1.34.26,2.3,2.3,0,0,0-.93.68,1.52,1.52,0,0,0-.33.94h-2.1a2.76,2.76,0,0,1,.6-1.67,4.34,4.34,0,0,1,1.71-1.31,6.51,6.51,0,0,1,4.88-.07,3.53,3.53,0,0,1,1.59,1.33,3.94,3.94,0,0,1,.58,2.17v5.49A7,7,0,0,0,405.25,177.66Zm-4-.47a3.69,3.69,0,0,0,1.07-.65,2.87,2.87,0,0,0,.68-.87v-2.44h-1.7a5.72,5.72,0,0,0-2.76.54,1.79,1.79,0,0,0-.95,1.63,2,2,0,0,0,.27,1,1.88,1.88,0,0,0,.78.72,2.73,2.73,0,0,0,1.26.27A3.76,3.76,0,0,0,401.28,177.19Z" transform="translate(-49.96 -50.48)"/><path class="cls-1" d="M418,171.23V179h-2.1v-7.75a2.72,2.72,0,0,0-.61-2,2.42,2.42,0,0,0-1.81-.61,3.09,3.09,0,0,0-1.74.51,3.68,3.68,0,0,0-1.22,1.37V179h-2.1V167.17h2l.07,1.45a4.6,4.6,0,0,1,1.58-1.23,4.76,4.76,0,0,1,2-.44Q418,167,418,171.23Z" transform="translate(-49.96 -50.48)"/><path class="cls-1" d="M430.14,167.17l-4.88,13.6a5.92,5.92,0,0,1-1.3,2.07,3.08,3.08,0,0,1-2.31.88,4,4,0,0,1-.61-.06,4.48,4.48,0,0,1-.57-.12v-1.62l.28,0H421a2.73,2.73,0,0,0,1.66-.43,3,3,0,0,0,1-1.51l.46-1.21-4.33-11.65h2.29l3,8.82,2.82-8.82Z" transform="translate(-49.96 -50.48)"/><path class="cls-1" d="M50,50.48V184.1H183.59V50.48ZM173.43,174H60.12V60.64H173.43Z" transform="translate(-49.96 -50.48)"/><path class="cls-1" d="M153.93,99.24a8.89,8.89,0,0,0-8.88-8.87h-1.19A8.88,8.88,0,0,0,135,99.24v45h19Z" transform="translate(-49.96 -50.48)"/><path class="cls-1" d="M126,99.24a8.88,8.88,0,0,0-8.88-8.87H116a8.88,8.88,0,0,0-8.88,8.87v45h19Z" transform="translate(-49.96 -50.48)"/><path class="cls-1" d="M97.19,144.34l1.41.28V89.91l-1.45.35c-11.75,2.81-19.64,13.68-19.64,27C77.51,130.92,85.6,142,97.19,144.34Z" transform="translate(-49.96 -50.48)"/></svg>