<svg id="Layer_3" data-name="Layer 3" xmlns="http://www.w3.org/2000/svg" viewBox="0 0 3711.91 850.39"><defs><style>.cls-1{fill:#c01722;}.cls-2{fill:#650a0a;}</style></defs><path class="cls-1" d="M1309.9,769.64h-.22c-62.22-4.37-108.6,33.83-108.6,97.51v190H1099.85V677.51H1206.2c1.51,18.12-1.68,38.82-8.53,54.4.37-.73.75-1.45,1.14-2.17a105.78,105.78,0,0,1,21-28.48.47.47,0,0,1,.1-.1c.87-.84,1.74-1.67,2.64-2.48a99.11,99.11,0,0,1,22.61-15.56l.73-.37,2-1c.64-.3,1.26-.61,1.91-.9v.06c24.3-10.64,54.81-12.56,91.46-2.77l-11.68,94.23c-1.83-.37-3.64-.69-5.45-1l-1.94-.32q-2.48-.39-4.92-.69l-1.65-.2C1313.7,770,1311.79,769.78,1309.9,769.64Zm722.5-92.13H1931.16v379.64H2032.4Zm0-140.17H1931.16v75.93H2032.4Zm-514,0H1417.19v75.93h101.23Zm1619.17,0H3036.35v519.81h101.24ZM1837.71,765.25V677.51h-124.6V537.34H1611.87V895.56c0,53.74,8.57,87.22,28,112.92,25.7,34.27,70.09,54.51,130.83,54.51,19.47,0,51.78-3.57,65-8.24l-20.06-84.61c-7,1.55-23.93,3.3-38.73,3.3-24.92,0-41.28-7-51.4-18.69-8.56-10.13-12.46-24.14-12.46-47.51v-142Zm1093.52-87.74v379.64H2830v-22A194.73,194.73,0,0,1,2729.38,1063c-108.06,0-195.66-87.6-195.66-195.66s87.6-195.66,195.66-195.66A194.74,194.74,0,0,1,2830,699.5v-22Zm-99.64,189.82a102.21,102.21,0,1,0-102.21,102.21A102.21,102.21,0,0,0,2831.59,867.33ZM2399.7,927.4a102.21,102.21,0,1,1,0-120.14l75.62-54.93A195.38,195.38,0,0,0,2317,671.67c-108.06,0-195.66,87.6-195.66,195.66S2209,1063,2317,1063a195.37,195.37,0,0,0,158.29-80.65ZM1518.42,677.51H1417.19v379.64h101.23ZM930.32,893.93a164.52,164.52,0,1,1,0-193.37L1012.24,641a265.39,265.39,0,0,0-215-109.54c-146.76,0-265.74,119-265.74,265.75S650.48,1063,797.24,1063a265.39,265.39,0,0,0,215-109.54Z" transform="translate(-531.5 -531.5)"/><path class="cls-1" d="M3390.68,531.5v850.39H4243.4V532.24A850.09,850.09,0,0,0,3821.08,949c57.37-126.76,84-269.36,71.69-417.46Z" transform="translate(-531.5 -531.5)"/><path class="cls-2" d="M1891.29,1258.71c-19.47,0-32.31,8.22-32.31,21.49,0,11.54,9.81,17,27.84,19.18l16.15,2c29,3.9,45.87,15.72,45.87,38.08,0,26-23.36,42.27-60.15,42.27-17.59,0-39.66-4.47-57-17.46l10-16.15c10.39,8.08,24.23,14.86,47.31,14.86s37.65-7.65,37.65-22.07c0-11-9.09-17.6-28.56-19.91l-16.3-1.88c-31-3.89-45.15-17.45-45.15-37.79,0-26,21.64-41.4,54.53-41.4,21.49,0,41,6.06,54.23,14.86l-9.37,16.73C1927.35,1265.48,1909.75,1258.71,1891.29,1258.71Zm238.28,52.07c0,40.53-30.87,71.11-72,71.11s-71.83-30.58-71.83-71.11,30.72-71,71.83-71S2129.57,1270.39,2129.57,1310.78Zm-121.89,0c0,29.42,21.64,50.92,49.91,50.92s49.91-21.5,49.91-50.92-21.64-50.78-49.91-50.78S2007.68,1281.35,2007.68,1310.78ZM2212.92,1262v117.13h-21.63V1262h-31.16v-19.47h31.16v-23.37c0-29.13,13.12-50.48,45.43-50.48a70.1,70.1,0,0,1,37.36,10.24l-7.79,18a56.45,56.45,0,0,0-28.12-8.08c-17.75,0-25.25,11.11-25.25,30.29v23.37h54.38V1262Zm128.8,0v69c0,21.35,11.4,30.73,27.12,30.73,10.53,0,20.63-3.9,28.71-9.67l10.09,16.3a65,65,0,0,1-40.53,13.56c-29.43,0-46.88-16.15-46.88-50.49V1262h-29.86v-19.47h29.86v-43.42h21.49v43.42h59V1262Zm298.43-19.47h22.36L2612,1379.15h-25.53l-40.82-113.52L2505,1379.15h-25.1l-50.48-136.6h22.93l40.82,114.1,40.68-114.1h24.23l41,114.24Zm170.9,136.6v-20.34c-11,14-27.26,23.08-49.91,23.08-38.51,0-68.22-30-68.22-71.11s29.71-71,68.22-71c22.65,0,39,9.23,49.91,23.08v-20.34h21.5v136.6Zm-96.21-68.37c0,28.27,19.91,50.92,48.9,50.92,28.42,0,48.61-21.93,48.61-50.92s-20.19-50.78-48.61-50.78C2734.46,1260,2714.84,1282.65,2714.84,1310.78Zm264.67-66.35-5.19,21.2c-6.78-3.61-15.58-5.48-23.66-5.48-21.35,0-36.64,16.73-36.64,42.55v76.45h-21.49v-136.6h21.35v19.18c9.37-14,23.65-21.92,40.53-21.92C2964.22,1239.81,2972.15,1241.11,2979.51,1244.43Zm158.08,65.92a67.81,67.81,0,0,1-.43,8.07H3027.68c3,29.43,23.65,44.58,48.32,44.58a62.56,62.56,0,0,0,43.27-17.17l11.54,14.71c-17,16.3-35.92,21.35-56.11,21.35-40.39,0-69.09-28.7-69.09-71,0-41.83,29-71.11,67.79-71.11C3110.47,1239.81,3137.16,1268.8,3137.59,1310.35ZM3028,1301h87.71c-2.74-25.53-19.48-42-42.7-42C3047.73,1259,3031.43,1276.3,3028,1301Z" transform="translate(-531.5 -531.5)"/></svg>