<svg id="New_VF_Logo_AW" data-name="New VF Logo AW" xmlns="http://www.w3.org/2000/svg" viewBox="0 0 1149.5 283.46"><defs><style>.cls-1{fill:#e60000;}.cls-2{fill:#fff;}</style></defs><circle class="cls-1" cx="141.73" cy="141.73" r="141.73"/><path class="cls-2" d="M157,234.94c-38.94.13-79.46-33.11-79.63-86.48C77.28,113.17,96.32,79.2,120.66,59c23.74-19.66,56.26-32.27,85.76-32.37a35.85,35.85,0,0,1,10.2,1.13c-25.79,5.35-46.32,29.35-46.23,56.58a15.55,15.55,0,0,0,.17,2.31c43.16,10.51,62.75,36.55,62.87,72.58S205.11,234.78,157,234.94Z" transform="translate(-14.17 -14.17)"/><path class="cls-1" d="M389.17,214.62,345.83,111.2h28.32l27,68.66,26.18-68.66h27L412.34,214.62Z" transform="translate(-14.17 -14.17)"/><path class="cls-1" d="M556,162.48a65.11,65.11,0,0,1-3.11,19.85,54.63,54.63,0,0,1-9.23,17.48,45.65,45.65,0,0,1-15.44,12.45,52.61,52.61,0,0,1-43.56,0,45.65,45.65,0,0,1-15.44-12.45A54.44,54.44,0,0,1,460,182.33a64.81,64.81,0,0,1-3.11-19.85A63.83,63.83,0,0,1,460,142.74a53.4,53.4,0,0,1,9.23-17.27,45.08,45.08,0,0,1,15.44-12.23q9.33-4.6,21.78-4.61t21.67,4.61a46.59,46.59,0,0,1,15.45,12.23,52.51,52.51,0,0,1,9.33,17.27A64.13,64.13,0,0,1,556,162.48Zm-26.17-.11a49,49,0,0,0-1.51-12.27,29.93,29.93,0,0,0-4.5-10,23.18,23.18,0,0,0-7.3-6.67,21.75,21.75,0,0,0-20.17,0,23,23,0,0,0-7.29,6.67,29.74,29.74,0,0,0-4.5,10,51.05,51.05,0,0,0,0,24.65,32.46,32.46,0,0,0,4.39,10,21.25,21.25,0,0,0,7.3,6.79A20.53,20.53,0,0,0,506.43,194a19.92,19.92,0,0,0,10.08-2.47,22.78,22.78,0,0,0,7.3-6.79,31.26,31.26,0,0,0,4.5-10A48.55,48.55,0,0,0,529.82,162.37Z" transform="translate(-14.17 -14.17)"/><path class="cls-1" d="M638.06,214.62,637,206.68a33.08,33.08,0,0,1-9.62,7.18A30.16,30.16,0,0,1,613.23,217a38.14,38.14,0,0,1-18.82-4.51,42.51,42.51,0,0,1-13.69-12,54.8,54.8,0,0,1-8.44-17.38,72.83,72.83,0,0,1-2.89-20.6,66.5,66.5,0,0,1,3-19.74,52.14,52.14,0,0,1,9.09-17.27,45.23,45.23,0,0,1,15.3-12.23q9.18-4.6,21.6-4.61a58.46,58.46,0,0,1,17.53,3V71.51h26.61V214.62ZM635.9,134a39.52,39.52,0,0,0-14.3-3,24.84,24.84,0,0,0-11.74,2.59,23.3,23.3,0,0,0-8.11,7,32.11,32.11,0,0,0-4.8,9.91,40,40,0,0,0-1.6,11.3,53.88,53.88,0,0,0,1.39,12.38A32,32,0,0,0,601,184.44a23.09,23.09,0,0,0,7.25,7.11,19.41,19.41,0,0,0,10.35,2.68,21.5,21.5,0,0,0,10-2.68,17.48,17.48,0,0,0,7.26-6.36Z" transform="translate(-14.17 -14.17)"/><path class="cls-1" d="M739.54,214.52l-1.06-7.72a29.55,29.55,0,0,1-11,7.47A38.65,38.65,0,0,1,712.85,217,36.69,36.69,0,0,1,700,214.72a34,34,0,0,1-10.87-6.43,31.44,31.44,0,0,1-10.55-24.14,29.51,29.51,0,0,1,3-13.62,30,30,0,0,1,8.18-10,45.16,45.16,0,0,1,11.85-6.65,73.84,73.84,0,0,1,14-3.86A97.35,97.35,0,0,1,727,148.43q6.13-.54,10.23-1V146q0-8.58-4.42-12.23t-12.18-3.65a33.67,33.67,0,0,0-8.63,1.08,37.18,37.18,0,0,0-7.33,2.68,57.36,57.36,0,0,0-5.72,3.21,40.54,40.54,0,0,0-4,2.9l-8.79-18.67a40,40,0,0,1,5.25-3.64,60.39,60.39,0,0,1,8.58-4.19A73.8,73.8,0,0,1,711.34,110,63.16,63.16,0,0,1,725,108.63a51.52,51.52,0,0,1,15.66,2.25A31.68,31.68,0,0,1,752.85,118a32.8,32.8,0,0,1,8,12.22,49.13,49.13,0,0,1,2.9,17.89v66.46Zm-2.13-48.39c-2.88.14-5.84.39-8.86.75s-5.9.82-8.64,1.39q-8.64,1.72-12,5.9a14.29,14.29,0,0,0-3.34,9.12,10.16,10.16,0,0,0,3.78,8.26q3.78,3.12,10.69,3.11a24.62,24.62,0,0,0,10-2.14,29.65,29.65,0,0,0,8.32-5.37Z" transform="translate(-14.17 -14.17)"/><path class="cls-1" d="M846,95.11a39.79,39.79,0,0,0-5-1.82,34.14,34.14,0,0,0-10-1.18,13.58,13.58,0,0,0-9.33,3.32q-3.75,3.33-3.75,10.83v4.94H840.2v21.46H818.1v82H791.5v-82H777.77V111.2H791.5v-5.58a49.64,49.64,0,0,1,2.57-17.05,29.5,29.5,0,0,1,7.19-11.37,28.06,28.06,0,0,1,10.83-6.44,43.2,43.2,0,0,1,13.52-2,59.18,59.18,0,0,1,16,1.82A50.45,50.45,0,0,1,849,73Z" transform="translate(-14.17 -14.17)"/><path class="cls-1" d="M944.69,162.48a65.11,65.11,0,0,1-3.11,19.85,54.63,54.63,0,0,1-9.23,17.48,45.69,45.69,0,0,1-15.45,12.45,52.59,52.59,0,0,1-43.55,0,45.79,45.79,0,0,1-15.45-12.45,54.22,54.22,0,0,1-9.22-17.48,64.82,64.82,0,0,1-3.12-19.85,63.84,63.84,0,0,1,3.12-19.74,53.19,53.19,0,0,1,9.22-17.27,45.22,45.22,0,0,1,15.45-12.23,48.63,48.63,0,0,1,21.77-4.61q12.45,0,21.67,4.61a46.59,46.59,0,0,1,15.45,12.23,52.53,52.53,0,0,1,9.34,17.27A64.13,64.13,0,0,1,944.69,162.48Zm-26.18-.11A49,49,0,0,0,917,150.1a29.75,29.75,0,0,0-4.51-10,23,23,0,0,0-7.29-6.67,21.75,21.75,0,0,0-20.17,0,23,23,0,0,0-7.29,6.67,29.75,29.75,0,0,0-4.51,10,51.38,51.38,0,0,0,0,24.65,32.71,32.71,0,0,0,4.4,10,21.31,21.31,0,0,0,7.29,6.79A20.55,20.55,0,0,0,895.12,194a19.93,19.93,0,0,0,10.09-2.47,22.64,22.64,0,0,0,7.29-6.79,31.06,31.06,0,0,0,4.51-10A48.56,48.56,0,0,0,918.51,162.37Z" transform="translate(-14.17 -14.17)"/><path class="cls-1" d="M1027.27,214.62v-59q0-11.79-4.94-18.23t-13.73-6.44a21.55,21.55,0,0,0-11.48,3.22,48.86,48.86,0,0,0-9.12,7.08v73.38H961.4V111.2h24.24l1.29,8.15a46.11,46.11,0,0,1,14.06-7.93,46.66,46.66,0,0,1,15.77-2.79,44.31,44.31,0,0,1,15,2.46,29.29,29.29,0,0,1,11.79,7.84,36.17,36.17,0,0,1,7.62,13.94,69.49,69.49,0,0,1,2.68,20.6v61.15Z" transform="translate(-14.17 -14.17)"/><path class="cls-1" d="M1096.52,169.56q.87,13.09,8.19,18.88t19,5.79a50.91,50.91,0,0,0,10.12-1,47.4,47.4,0,0,0,8.4-2.47,51.23,51.23,0,0,0,6.25-3,19.79,19.79,0,0,0,3.88-2.79l7.08,21.67a53.34,53.34,0,0,1-4.83,2.89,49.16,49.16,0,0,1-8.26,3.44,87.22,87.22,0,0,1-11.59,2.79,84.36,84.36,0,0,1-14.59,1.18,57.41,57.41,0,0,1-19.2-3.22,42.76,42.76,0,0,1-16-10A48.87,48.87,0,0,1,1074,186.94q-4.08-10.08-4.08-24a66.24,66.24,0,0,1,3.75-23.17,48.91,48.91,0,0,1,10.3-17,44.8,44.8,0,0,1,15.24-10.52,47.61,47.61,0,0,1,18.55-3.64,50.52,50.52,0,0,1,18.24,3.21,37.45,37.45,0,0,1,14.48,10,48.21,48.21,0,0,1,9.66,17.49q3.54,10.73,3.54,25.53v4.72Zm40.12-19.09a27.32,27.32,0,0,0-2.26-9.34,19.79,19.79,0,0,0-4.53-6.43,18,18,0,0,0-5.83-3.65,17.77,17.77,0,0,0-6.36-1.18q-6.9,0-13.16,5.15t-7.33,15.45Z" transform="translate(-14.17 -14.17)"/></svg>