<svg id="Layer_1" data-name="Layer 1" xmlns="http://www.w3.org/2000/svg" viewBox="0 0 1920 1920"><defs><style>.cls-1{fill:#c01722;stroke:#fff;}.cls-1,.cls-2{stroke-miterlimit:10;}.cls-2{fill:#fff;stroke:#c01722;}.cls-3{fill:#650a0a;}</style></defs><title>critical_software_estagioverao_20182019</title><rect class="cls-1" x="-0.5" y="-0.5" width="1920" height="1920"/><path class="cls-2" d="M468.84,873.9h-.1c-28.35-2-49.52,15.41-49.52,44.43V1005H373.09v-173h48.5a54.55,54.55,0,0,1-3.87,24.81c.19-.34.34-.68.53-1a48.39,48.39,0,0,1,9.54-13l0,0a15.91,15.91,0,0,1,1.21-1.11,45.06,45.06,0,0,1,10.33-7.08c.09,0,.24-.09.33-.14l.93-.44.87-.43v0c11.09-4.84,25-5.71,41.67-1.26l-5.33,42.94a21.72,21.72,0,0,0-2.47-.44l-.87-.15c-.78-.09-1.51-.24-2.23-.29-.25,0-.49,0-.78-.09A17.09,17.09,0,0,0,468.84,873.9Zm329.34-42H752.06v173h46.12Zm0-63.91H752.06v34.59h46.12Zm-234.32,0H517.73v34.59h46.13ZM1302,768h-46.13V1005H1302ZM709.42,871.91v-40H652.63V768H606.5V931.32c0,24.47,3.92,39.78,12.79,51.46,11.72,15.6,31.93,24.86,59.65,24.86,8.86,0,23.59-1.65,29.65-3.78l-9.16-38.57a100.54,100.54,0,0,1-17.63,1.5c-11.34,0-18.8-3.2-23.46-8.53-3.92-4.6-5.67-11-5.67-21.66V871.91Zm498.45-40v173h-46.13v-10a89.21,89.21,0,1,1,0-153v-10h46.13Zm-45.4,86.49A46.62,46.62,0,1,0,1115.86,965,46.6,46.6,0,0,0,1162.47,918.43ZM965.6,945.81a46.62,46.62,0,1,1,0-54.85l34.45-25.06a89.26,89.26,0,1,0,0,105ZM563.86,831.94H517.73v173h46.13ZM295.8,930.59a75,75,0,1,1,0-88.19l37.36-27.13a121.17,121.17,0,1,0,0,142.41Z"/><path class="cls-3" d="M733.84,1096.84c-8.87,0-14.73,3.73-14.73,9.79,0,5.28,4.45,7.75,12.69,8.72l7.37.92c13.22,1.79,20.93,7.17,20.93,17.35,0,11.82-10.66,19.28-27.43,19.28-8,0-18.07-2-26-7.94l4.56-7.37c4.74,3.68,11,6.79,21.56,6.79S750,1140.89,750,1134.3c0-5-4.12-8-13-9.06l-7.42-.88c-14.15-1.79-20.59-7.94-20.59-17.25,0-11.82,9.89-18.85,24.86-18.85,9.79,0,18.65,2.77,24.71,6.79l-4.26,7.61C750.26,1099.94,742.27,1096.84,733.84,1096.84Zm108.63,23.74c0,18.46-14.05,32.42-32.8,32.42s-32.76-14-32.76-32.42,14-32.36,32.76-32.36S842.47,1102.17,842.47,1120.58Zm-55.58,0c0,13.43,9.89,23.21,22.78,23.21s22.77-9.78,22.77-23.21-9.88-23.16-22.77-23.16S786.89,1107.16,786.89,1120.58Zm93.57-22.24v53.4h-9.88v-53.4h-14.2v-8.86h14.2v-10.66c0-13.28,6-23,20.69-23a32.08,32.08,0,0,1,17,4.65l-3.53,8.24A25.73,25.73,0,0,0,891.9,1065c-8.1,0-11.49,5-11.49,13.81v10.66h24.81v8.86Zm58.73,0v31.45c0,9.74,5.18,14,12.35,14a22.94,22.94,0,0,0,13.09-4.41l4.6,7.42a29.66,29.66,0,0,1-18.46,6.2c-13.42,0-21.37-7.37-21.37-23v-31.64H915.78v-8.86H929.4v-19.77h9.79v19.77h26.89v8.86Zm136-8.86h10.18l-23,62.26h-11.63l-18.6-51.75-18.56,51.75h-11.44l-23-62.26h10.46l18.61,52,18.56-52h11l18.66,52.08Zm77.92,62.26v-9.25c-5,6.39-12.41,10.51-22.78,10.51-17.54,0-31.1-13.66-31.1-32.42s13.56-32.36,31.1-32.36c10.32,0,17.74,4.21,22.78,10.51v-9.25h9.79v62.26Zm-43.85-31.16c0,12.89,9.06,23.21,22.28,23.21,12.94,0,22.15-10,22.15-23.21s-9.21-23.16-22.15-23.16C1118.18,1097.42,1109.27,1107.74,1109.27,1120.58Zm120.6-30.23-2.37,9.64a24,24,0,0,0-10.81-2.52c-9.74,0-16.72,7.61-16.72,19.38v34.84h-9.78v-62.21h9.73v8.72a21.64,21.64,0,0,1,18.47-10A27,27,0,0,1,1229.87,1090.35Zm72.1,30a29.07,29.07,0,0,1-.19,3.68h-49.91c1.36,13.42,10.8,20.31,22.05,20.31a28.64,28.64,0,0,0,19.72-7.81l5.28,6.69c-7.75,7.41-16.38,9.74-25.59,9.74-18.41,0-31.49-13.08-31.49-32.37,0-19.09,13.23-32.41,30.91-32.41C1289.57,1088.22,1301.78,1101.44,1302,1120.39Zm-50-4.26h40c-1.26-11.63-8.87-19.14-19.48-19.14C1261,1097,1253.56,1104.88,1252,1116.13Z"/><path class="cls-2" d="M1417.29,765.36V1153H1806V765.7a387.55,387.55,0,0,0-192.51,189.94,382.93,382.93,0,0,0,32.66-190.28Z"/></svg>