<svg id="Layer_1" data-name="Layer 1" xmlns="http://www.w3.org/2000/svg" xmlns:xlink="http://www.w3.org/1999/xlink" viewBox="0 0 1920 1920"><defs><style>.cls-1{fill:none;}.cls-2{fill:#3d3939;stroke:#fff;stroke-miterlimit:10;}.cls-3,.cls-4{fill:#76a2d4;}.cls-4{fill-rule:evenodd;}.cls-5{clip-path:url(#clip-path);}.cls-6{fill:#a5c059;}</style><clipPath id="clip-path"><rect class="cls-1" x="150" y="721" width="1619.94" height="477"/></clipPath></defs><title>feedzai_estagioverao_20182019</title><rect class="cls-2" x="-0.5" y="-0.5" width="1920" height="1920"/><path class="cls-3" d="M302.76,845.73l-19.88,41.52c-3.23-1-6.58-2-10.08-2.84a48.27,48.27,0,0,0-11.4-1.3c-9.38,0-16.84,3.09-22.42,9.21a32.14,32.14,0,0,0-8.85,22.47v39.12h48.46v43.23H230.13V1198h-48.4V997.14H150V953.91h31.73V917.62q0-32.42,19.85-53.61,22.85-24.15,63.82-24.15a157.8,157.8,0,0,1,20.19,1.31,60.3,60.3,0,0,1,17.17,4.56"/><path class="cls-4" d="M487.12,994.59c-5.33-16.36-13.63-28.83-25-37.36q-17.58-12.51-41.32-12.49-23.47,0-40.56,12.93c-11.71,8.86-19.52,21.17-23.26,36.92Zm56.73,38.32H356.94c0,15.76,6.95,29.06,21,39.86A75,75,0,0,0,425.59,1089q38.64,0,65.09-33.32l40.92,21.65A146.72,146.72,0,0,1,484,1115.65a122.72,122.72,0,0,1-57.16,14.12q-56.24,0-91.49-34.93-32.59-32.37-32.58-78.16,0-45.36,32.58-77.84,35.19-35.34,91.49-35.32,41.81,0,76.19,28.72,40.8,34.6,40.83,91.93v8.74Z"/><path class="cls-4" d="M763.41,994.59q-7.95-24.54-25-37.36c-11.71-8.34-25.54-12.49-41.36-12.49q-23.43,0-40.5,12.93Q638.9,971,633.23,994.59Zm56.69,38.32H633.23c0,15.76,7,29.06,21,39.86,13.77,10.85,29.68,16.27,47.6,16.27q38.65,0,65.1-33.32l40.91,21.65a146.62,146.62,0,0,1-47.61,38.28,122.74,122.74,0,0,1-57.15,14.12q-56.25,0-91.5-34.93-32.6-32.37-32.57-78.16,0-45.36,32.57-77.84,35.22-35.34,91.5-35.32,41.79,0,76.17,28.72,40.79,34.6,40.8,91.93v8.74Z"/><path class="cls-4" d="M1045,1016.66q0-28.63-20.75-49.06c-13.73-13.63-30.31-20.4-49.61-20.4q-30,0-50.62,20-21.13,20.35-21.17,49.45,0,28.71,21.17,49.15t50.62,20.27q28.51,0,49.7-20.27,20.63-20.07,20.66-49.15m46.6,107.32h-48.31v-26.2a83.15,83.15,0,0,1-31.69,23.25,105.34,105.34,0,0,1-43.12,8.71q-52.41,0-85.82-35.71-30.84-32.82-30.85-77.37,0-43.32,31.71-76.48,34.82-36.67,87.12-36.66,24.2,0,43.08,8.75c12.28,5.79,21.88,13.57,28.68,23.35l.89-89.89h48.31V1124Z"/><polygon class="cls-3" points="1320.39 909.3 1211.26 1080.73 1317.79 1080.73 1317.79 1123.96 1130.8 1123.96 1239.53 953.11 1140.03 953.11 1140.03 909.3 1320.39 909.3 1320.39 909.3"/><path class="cls-4" d="M1536,1016.66q0-28.63-20.77-49.06-20.61-20.45-49.61-20.4-30,0-50.61,20-21.18,20.35-21.17,49.45,0,28.71,21.17,49.15t50.61,20.27q28.56,0,49.73-20.27,20.59-20.07,20.65-49.15M1582.61,1124h-48.35v-26.2a82.77,82.77,0,0,1-31.69,23.25,105,105,0,0,1-43.06,8.71q-52.4,0-85.81-35.71-30.84-32.82-30.87-77.37,0-43.32,31.73-76.48,34.79-36.67,87.11-36.66,24.16,0,43.06,8.75,18.45,8.68,28.67,23.35l.86-26.32h48.35V1124Z"/><g class="cls-5"><polygon class="cls-3" points="1693.49 1123.98 1645.14 1123.98 1645.14 909.32 1693.49 909.32 1693.49 1123.98 1693.49 1123.98"/><path class="cls-6" d="M1770,721l-16.38,141.51-37.77-33.25c-5.88,3.29-90.7,49.35-152.14,3.18,0,0,48.34,13.51,99.13-50l-41-36.15L1770,721Z"/></g></svg>