<svg id="Layer_1" data-name="Layer 1" xmlns="http://www.w3.org/2000/svg" viewBox="0 0 761.69 363.27"><defs><style>.cls-1{fill:#303030;}</style></defs><path class="cls-1" d="M784.76,465.09a10.24,10.24,0,0,0,3.71-3.17,13.57,13.57,0,0,0,2.11-4.63,21.76,21.76,0,0,0,.69-5.5,29.24,29.24,0,0,0-.32-4.12,14.33,14.33,0,0,0-1.24-4.13,9.05,9.05,0,0,0-2.52-3.21,6.36,6.36,0,0,0-4.08-1.28,5.72,5.72,0,0,0-4.31,1.7,13.39,13.39,0,0,0-2.75,4.44,44.85,44.85,0,0,0-1.93,6.24q-.81,3.48-1.83,7.06a63.81,63.81,0,0,1-2.24,7.15,24.52,24.52,0,0,1-3.44,6.23,16.17,16.17,0,0,1-5.28,4.45,16,16,0,0,1-7.65,1.69,17.14,17.14,0,0,1-8.76-2.15,19.51,19.51,0,0,1-6.18-5.64,24.43,24.43,0,0,1-3.67-7.89,33.66,33.66,0,0,1-1.19-8.8,41.84,41.84,0,0,1,1.14-9.85,24.57,24.57,0,0,1,3.72-8.39,18.82,18.82,0,0,1,6.55-5.82,20.05,20.05,0,0,1,9.67-2.16v13.94a11.64,11.64,0,0,0-4.86,1.24,8.06,8.06,0,0,0-3,2.79,12.05,12.05,0,0,0-1.56,4,25.06,25.06,0,0,0-.46,4.91,17.15,17.15,0,0,0,.37,3.48,9.18,9.18,0,0,0,1.28,3.16,7.9,7.9,0,0,0,2.3,2.34,6.13,6.13,0,0,0,3.48.92,5.84,5.84,0,0,0,3.11-.74,6.47,6.47,0,0,0,2.21-2.88,37.35,37.35,0,0,0,2-6q1-3.81,2.57-9.95c.24-1.22.69-2.92,1.33-5.09a24.49,24.49,0,0,1,3.07-6.46,19.65,19.65,0,0,1,5.64-5.55,16,16,0,0,1,9-2.33,20,20,0,0,1,8.34,1.73,18.19,18.19,0,0,1,6.65,5.18,24.76,24.76,0,0,1,4.35,8.53,40.33,40.33,0,0,1,1.56,11.79A41.15,41.15,0,0,1,801,462.84a26.12,26.12,0,0,1-4.17,9,20.49,20.49,0,0,1-7.24,6.19,21.51,21.51,0,0,1-10.45,2.2V466.28A12.06,12.06,0,0,0,784.76,465.09Z" transform="translate(-40.67 -116.94)"/><path class="cls-1" d="M735.44,367.63h12.1V402.2h14V370.47h11.18V402.2h16V366.89H800.9v49.7H735.44Z" transform="translate(-40.67 -116.94)"/><path class="cls-1" d="M781.23,314.4a16.24,16.24,0,0,1,5.09,3.13q4,3.71,4,10.31a16.72,16.72,0,0,1-1.88,8.25,15.55,15.55,0,0,1-5,5.5,21.58,21.58,0,0,1-7,3.07,32.86,32.86,0,0,1-8,1,35.38,35.38,0,0,1-8.34-1,22,22,0,0,1-7.2-3.07,15.41,15.41,0,0,1-5-5.5,16.83,16.83,0,0,1-1.88-8.25,15,15,0,0,1,.87-5.09,14.69,14.69,0,0,1,2.43-4.35,14.39,14.39,0,0,1,2.57-2.43V300.79a23.2,23.2,0,0,0-4.5,1.93A24.56,24.56,0,0,0,740,309a27.64,27.64,0,0,0-4.53,8.62,35.13,35.13,0,0,0,1.09,23.74,28.93,28.93,0,0,0,7.34,10.13,32.45,32.45,0,0,0,11,6.33,40.77,40.77,0,0,0,13.61,2.2,39.43,39.43,0,0,0,13.34-2.2,31.49,31.49,0,0,0,10.77-6.33,28.84,28.84,0,0,0,7.2-10.13,33.58,33.58,0,0,0,2.61-13.52,32.39,32.39,0,0,0-1.83-11.1,25.72,25.72,0,0,0-5.32-8.8,26.65,26.65,0,0,0-8.43-6.05,30.76,30.76,0,0,0-5.55-1.91Z" transform="translate(-40.67 -116.94)"/><path class="cls-1" d="M120.93,386.84a55.14,55.14,0,0,0,16.78,19.7,72.64,72.64,0,0,0,24.56,11.19,116.08,116.08,0,0,0,29.18,3.64,151.25,151.25,0,0,0,21.88-1.7,76.12,76.12,0,0,0,21.89-6.56,47.83,47.83,0,0,0,17-13.38q6.79-8.5,6.8-21.64,0-14.1-9-22.85t-23.59-14.59a235.89,235.89,0,0,0-33.07-10.22q-18.48-4.37-37.44-9.72A329.57,329.57,0,0,1,118,308.79a129.84,129.84,0,0,1-33.08-18.23,85.86,85.86,0,0,1-23.58-28q-9-16.77-9-40.6,0-26.75,11.43-46.45A103.28,103.28,0,0,1,93.7,142.72a130.11,130.11,0,0,1,41.82-19.45A178.08,178.08,0,0,1,182.21,117,221.16,221.16,0,0,1,234.49,123,130.73,130.73,0,0,1,279,142.72a99.67,99.67,0,0,1,30.88,34.77q11.43,21.15,11.43,51.3H247.37q-1-15.56-6.56-25.77A43,43,0,0,0,226,187a62.83,62.83,0,0,0-21.16-8.26,130.37,130.37,0,0,0-26-2.44,90,90,0,0,0-18.48,1.95A49.46,49.46,0,0,0,143.55,185a41.81,41.81,0,0,0-12.4,12.16q-4.87,7.29-4.87,18.47,0,10.22,3.89,16.54t15.32,11.67q11.41,5.35,31.61,10.7t52.76,13.62q9.73,1.95,27,7.05a129.16,129.16,0,0,1,34.29,16.29,103.78,103.78,0,0,1,29.42,29.91q12.4,18.72,12.4,47.9a106,106,0,0,1-9.24,44.25,96.2,96.2,0,0,1-27.47,35.26Q278,463.69,251,472t-62.49,8.27a219.82,219.82,0,0,1-55.68-7.05A140,140,0,0,1,85.19,451a109.16,109.16,0,0,1-32.83-38.42q-12.15-23.34-11.67-55.44h73.92Q114.61,374.69,120.93,386.84Z" transform="translate(-40.67 -116.94)"/><path class="cls-1" d="M712.92,124.07H655.43q-3,20.35-12.72,34.09a77.54,77.54,0,0,1-23.65,22.13,94.79,94.79,0,0,1-31.28,11.65,112.15,112.15,0,0,1,5.71,36.43A141.91,141.91,0,0,1,592,249.23h48.65v231h72.24V124.07" transform="translate(-40.67 -116.94)"/><path class="cls-1" d="M471.38,116.94q-32.06,0-56.73,10.94a110.76,110.76,0,0,0-40.95,30.53,131.9,131.9,0,0,0-24.42,45.79,156.24,156.24,0,0,0-5.46,24.59h71.11a87.41,87.41,0,0,1,8.63-23.06,55,55,0,0,1,17.55-19.34Q452,179,467.82,179q23.4,0,38.41,14.5t15,40.45a56.83,56.83,0,0,1-7.38,29,98.92,98.92,0,0,1-18.32,22.89,166,166,0,0,1-24.17,18.57q-13.23,8.4-24.93,16.54-22.89,15.78-43.5,31a211.72,211.72,0,0,0-35.87,33.33,143.42,143.42,0,0,0-24.17,41q-8.9,22.89-8.9,53.93H595.53V418.15H427.12a161.16,161.16,0,0,1,30.53-32.06q17.28-13.74,35.61-25.69t36.38-24.17A194.55,194.55,0,0,0,562,309a121.71,121.71,0,0,0,22.89-34.34A96.79,96.79,0,0,0,592,249.23h-40.9V194.79c1.68.05,3.36.07,5,.07A169,169,0,0,0,587.51,192l.27-.05a95.88,95.88,0,0,0-4.21-10.38,104,104,0,0,0-26.71-35.1,119.84,119.84,0,0,0-38.92-21.88,141.81,141.81,0,0,0-46.56-7.64" transform="translate(-40.67 -116.94)"/></svg>