<svg xmlns="http://www.w3.org/2000/svg" viewBox="0 0 337.62 143.98"><defs><style>.cls-1{fill:#646666;}.cls-2{fill:#ffc433;}</style></defs><g id="Camada_2" data-name="Camada 2"><g id="Layer_1" data-name="Layer 1"><polygon class="cls-1" points="190.18 50.69 202.23 71.68 205.97 71.68 218.02 50.69 218.02 78.87 224.43 78.87 224.43 37.62 218.51 37.62 204.08 62.77 189.74 37.62 183.77 37.62 183.77 78.87 190.18 78.87 190.18 50.69"/><rect class="cls-1" x="236.97" y="37.62" width="6.41" height="41.25"/><polygon class="cls-1" points="290.85 78.87 290.85 37.67 284.45 37.67 284.45 67.38 260.78 37.62 255.92 37.62 255.92 78.87 262.32 78.87 262.32 49.7 285.61 78.87 290.85 78.87"/><path class="cls-1" d="M332.23,73.16a18.68,18.68,0,0,0,4-6.55,24.38,24.38,0,0,0,1.38-8.42,24.93,24.93,0,0,0-1.23-7.89,19,19,0,0,0-3.75-6.58,17.73,17.73,0,0,0-6.22-4.46,21.19,21.19,0,0,0-8.61-1.64H303.4V78.87h14.41A21.54,21.54,0,0,0,326,77.39,18,18,0,0,0,332.23,73.16Zm-14.42-.26h-8V43.59h8a14.64,14.64,0,0,1,5.75,1.06,11.68,11.68,0,0,1,4.15,3,13.23,13.23,0,0,1,2.6,4.59,20.18,20.18,0,0,1,0,11.92,13.46,13.46,0,0,1-2.55,4.62,11.74,11.74,0,0,1-4.15,3A14.22,14.22,0,0,1,317.81,72.9Z"/><path class="cls-1" d="M200.25,105.3a11.55,11.55,0,0,0-3-1.46,36.85,36.85,0,0,0-4-1c-1.32-.28-2.47-.57-3.44-.86a9.43,9.43,0,0,1-2.39-1A3.91,3.91,0,0,1,186,99.54a4.22,4.22,0,0,1-.44-2,4.62,4.62,0,0,1,1.67-3.75q1.67-1.38,5.33-1.38a11.4,11.4,0,0,1,4.43.81,8.39,8.39,0,0,1,3.11,2.14l1.33-2.17a13.14,13.14,0,0,0-3.91-2.36,13.72,13.72,0,0,0-4.92-.83,14,14,0,0,0-4,.52A9.7,9.7,0,0,0,185.55,92a6.68,6.68,0,0,0-2,2.49,7.75,7.75,0,0,0-.72,3.4,6.41,6.41,0,0,0,.56,2.82,5.34,5.34,0,0,0,1.69,2A10.31,10.31,0,0,0,187.8,104c1.09.36,2.36.71,3.82,1s2.58.62,3.61.93a11,11,0,0,1,2.61,1.11,4.48,4.48,0,0,1,1.57,1.51,4.17,4.17,0,0,1,.53,2.16,4,4,0,0,1-1.85,3.6,9.5,9.5,0,0,1-5.15,1.19,14.69,14.69,0,0,1-3-.3,14.24,14.24,0,0,1-2.71-.81,12.44,12.44,0,0,1-2.29-1.23,10.2,10.2,0,0,1-1.77-1.48L181.78,114a16.45,16.45,0,0,0,11.08,4,16.8,16.8,0,0,0,4-.45,9.33,9.33,0,0,0,3.15-1.38,6.57,6.57,0,0,0,2.06-2.33,7.06,7.06,0,0,0,.74-3.31,6.6,6.6,0,0,0-.66-3.11A6.12,6.12,0,0,0,200.25,105.3Z"/><path class="cls-1" d="M228.12,94.39A13.31,13.31,0,0,0,224,91.18,11.33,11.33,0,0,0,218.76,90a11.68,11.68,0,0,0-5.13,1.14,13.23,13.23,0,0,0-4.12,3.1,14.57,14.57,0,0,0-2.75,4.47,14.36,14.36,0,0,0-1,5.29,14.67,14.67,0,0,0,.94,5.17,14.23,14.23,0,0,0,2.64,4.49,13.11,13.11,0,0,0,4.1,3.15,11.72,11.72,0,0,0,5.27,1.19,11.59,11.59,0,0,0,5.14-1.15,13.1,13.1,0,0,0,4.1-3.07,14.58,14.58,0,0,0,2.72-4.45,14.4,14.4,0,0,0,1-5.29,14.62,14.62,0,0,0-.93-5.12A14.92,14.92,0,0,0,228.12,94.39Zm.11,13.77a12.29,12.29,0,0,1-2,3.69A10.42,10.42,0,0,1,223,114.5a9.45,9.45,0,0,1-8.4,0,10.4,10.4,0,0,1-3.23-2.56,12.14,12.14,0,0,1-2.1-3.7,12.82,12.82,0,0,1,0-8.53,12,12,0,0,1,2-3.7,10,10,0,0,1,3.23-2.62,9,9,0,0,1,4.23-1,8.9,8.9,0,0,1,4.13,1A10.22,10.22,0,0,1,226.07,96a11.61,11.61,0,0,1,2.12,3.67A12.47,12.47,0,0,1,229,104,12.7,12.7,0,0,1,228.23,108.16Z"/><path class="cls-1" d="M257,104.07a21.66,21.66,0,0,1-.4,4.17,10.83,10.83,0,0,1-1.44,3.67,7.86,7.86,0,0,1-2.76,2.61,10,10,0,0,1-8.62,0A7.86,7.86,0,0,1,241,112a10.64,10.64,0,0,1-1.46-3.66,20.4,20.4,0,0,1-.43-4.24V90.15h-2.68v13.92a22.38,22.38,0,0,0,.58,5.14,12.69,12.69,0,0,0,1.95,4.43,9.94,9.94,0,0,0,3.59,3.13,11.66,11.66,0,0,0,5.51,1.19,11.81,11.81,0,0,0,5.4-1.13,9.87,9.87,0,0,0,3.6-3,12.57,12.57,0,0,0,2-4.42,21.7,21.7,0,0,0,.63-5.31V90.15H257Z"/><path class="cls-1" d="M282.39,106.08a7.58,7.58,0,0,0,1.92-1.87,8.82,8.82,0,0,0,1.25-2.49,9.26,9.26,0,0,0,.45-2.9,8.73,8.73,0,0,0-.61-3.15,9.1,9.1,0,0,0-1.69-2.78,8.59,8.59,0,0,0-2.59-2,7.07,7.07,0,0,0-3.28-.76H266.17v27.61h2.72V107.57h8.17l6.5,10.19h3.07l-6.77-10.65A6.9,6.9,0,0,0,282.39,106.08Zm-13.5-.92V92.56h8.79a4.83,4.83,0,0,1,2.16.51,5.67,5.67,0,0,1,1.79,1.36,6.6,6.6,0,0,1,1.21,2,6.7,6.7,0,0,1,.44,2.39,7.29,7.29,0,0,1-.39,2.38,6.88,6.88,0,0,1-1.08,2,5.29,5.29,0,0,1-1.7,1.42,4.6,4.6,0,0,1-2.19.52Z"/><path class="cls-1" d="M309.69,112.73a10.13,10.13,0,0,1-2.12,1.59,9.23,9.23,0,0,1-2.37.94,10.61,10.61,0,0,1-2.39.29,8.94,8.94,0,0,1-4.11-1,10.52,10.52,0,0,1-3.26-2.56,12.53,12.53,0,0,1-2.18-3.72,12.29,12.29,0,0,1-.8-4.39,13.37,13.37,0,0,1,.66-4.14,11.56,11.56,0,0,1,2-3.68,10.06,10.06,0,0,1,3.21-2.64,9.15,9.15,0,0,1,4.39-1,10.79,10.79,0,0,1,2.3.25,9.13,9.13,0,0,1,2.25.83,8.88,8.88,0,0,1,2,1.52,8,8,0,0,1,1.62,2.3L313,96a10.13,10.13,0,0,0-3.87-4.35A11.48,11.48,0,0,0,302.85,90a12.26,12.26,0,0,0-5.57,1.22,13.15,13.15,0,0,0-4.12,3.17,13.84,13.84,0,0,0-2.54,4.41,14.62,14.62,0,0,0-.88,5,14.85,14.85,0,0,0,.95,5.2,15.36,15.36,0,0,0,2.67,4.55,13.73,13.73,0,0,0,4.08,3.24,11,11,0,0,0,5.21,1.25,13.2,13.2,0,0,0,3.25-.43,13.47,13.47,0,0,0,3.13-1.25,11.93,11.93,0,0,0,2.68-2,8.3,8.3,0,0,0,1.87-2.74l-2.25-1.17A8.48,8.48,0,0,1,309.69,112.73Z"/><polygon class="cls-1" points="320.97 104.81 334.47 104.81 334.47 102.52 320.97 102.52 320.97 92.56 336.45 92.56 336.45 90.15 318.25 90.15 318.25 117.76 336.8 117.76 336.8 115.35 320.97 115.35 320.97 104.81"/><polygon class="cls-2" points="116.33 73.38 148.28 73.38 148.28 105.33 116.33 73.38"/><polygon class="cls-2" points="0.06 143.98 0.06 112.04 32.01 112.04 0.06 143.98"/><polygon class="cls-2" points="106.78 73.38 74.14 106.02 41.5 73.38 106.78 73.38"/><polygon class="cls-2" points="79.32 68.96 148.28 68.96 148.28 0 79.32 68.96"/><polygon class="cls-2" points="68.97 68.96 0 68.96 0 0 68.97 68.96"/><rect class="cls-2" x="0.06" y="73.38" width="34.21" height="34.21"/><polygon class="cls-2" points="114.48 110.19 148.28 143.98 148.28 111.61 114.48 77.81 114.48 110.19"/></g></g></svg>