<svg xmlns="http://www.w3.org/2000/svg" viewBox="0 0 761.69 363.27"><defs><style>.cls-1{fill:#303030;}</style></defs><g id="Camada_2" data-name="Camada 2"><g id="Layer_1" data-name="Layer 1"><path class="cls-1" d="M744.09,348.14A10.3,10.3,0,0,0,747.8,345a13.57,13.57,0,0,0,2.11-4.63,21.82,21.82,0,0,0,.69-5.5,29.37,29.37,0,0,0-.32-4.13A14.59,14.59,0,0,0,749,326.6a9,9,0,0,0-2.52-3.21,6.36,6.36,0,0,0-4.08-1.28,5.75,5.75,0,0,0-4.31,1.69,13.45,13.45,0,0,0-2.75,4.45,43.39,43.39,0,0,0-1.93,6.23q-.83,3.5-1.83,7.06a61.24,61.24,0,0,1-2.25,7.15,24.11,24.11,0,0,1-3.44,6.24A15.38,15.38,0,0,1,713,361.07a17.21,17.21,0,0,1-8.76-2.15,19.66,19.66,0,0,1-6.19-5.64,24.51,24.51,0,0,1-3.66-7.89,33.26,33.26,0,0,1-1.2-8.8,41.92,41.92,0,0,1,1.15-9.86,24.51,24.51,0,0,1,3.71-8.38,18.78,18.78,0,0,1,6.56-5.83,20.17,20.17,0,0,1,9.67-2.15v13.94a11.56,11.56,0,0,0-4.86,1.23,8.08,8.08,0,0,0-3,2.8,11.56,11.56,0,0,0-1.56,4,24.14,24.14,0,0,0-.46,4.9,17.31,17.31,0,0,0,.36,3.49,9.49,9.49,0,0,0,1.29,3.16,7.86,7.86,0,0,0,2.29,2.34,6.17,6.17,0,0,0,3.48.91,5.86,5.86,0,0,0,3.12-.73,6.48,6.48,0,0,0,2.2-2.89,35.6,35.6,0,0,0,2-6q1-3.8,2.57-9.95.36-1.83,1.33-5.08a24,24,0,0,1,3.07-6.46,19.27,19.27,0,0,1,5.64-5.55,16,16,0,0,1,9-2.34,20,20,0,0,1,8.34,1.74,18.27,18.27,0,0,1,6.65,5.18,25,25,0,0,1,4.35,8.53,40.26,40.26,0,0,1,1.56,11.78,41.1,41.1,0,0,1-1.33,10.49,26.26,26.26,0,0,1-4.17,9,20.68,20.68,0,0,1-7.24,6.19,21.64,21.64,0,0,1-10.46,2.2V349.34A12,12,0,0,0,744.09,348.14Z"/><path class="cls-1" d="M694.76,250.69h12.1v34.56h14V253.53h11.19v31.72h16V250h12.1v49.69H694.76Z"/><path class="cls-1" d="M740.56,197.45a16.66,16.66,0,0,1,5.09,3.13q4,3.72,4,10.32a16.83,16.83,0,0,1-1.88,8.25,15.75,15.75,0,0,1-5,5.5,21.64,21.64,0,0,1-7,3.07,33.41,33.41,0,0,1-8,1,36,36,0,0,1-8.35-1,22.15,22.15,0,0,1-7.19-3.07,15.7,15.7,0,0,1-5.05-5.5,16.83,16.83,0,0,1-1.88-8.25,15.13,15.13,0,0,1,3.31-9.45,14.64,14.64,0,0,1,2.56-2.42V183.84a24.49,24.49,0,0,0-11.87,8.21,28,28,0,0,0-4.54,8.62,35.09,35.09,0,0,0,1.1,23.75,28.9,28.9,0,0,0,7.34,10.13,32.74,32.74,0,0,0,10.95,6.33,41.12,41.12,0,0,0,13.62,2.2,39.76,39.76,0,0,0,13.34-2.2,32,32,0,0,0,10.77-6.33,29.06,29.06,0,0,0,7.2-10.13,33.58,33.58,0,0,0,2.61-13.52,32.31,32.31,0,0,0-1.83-11.1,25.93,25.93,0,0,0-5.32-8.8A26.69,26.69,0,0,0,746.1,185a30.67,30.67,0,0,0-5.54-1.92Z"/><path class="cls-1" d="M80.26,269.9A55,55,0,0,0,97,289.6a72.38,72.38,0,0,0,24.55,11.18,115.68,115.68,0,0,0,29.18,3.65,151.38,151.38,0,0,0,21.89-1.7,75.75,75.75,0,0,0,21.88-6.57,47.64,47.64,0,0,0,17-13.37q6.81-8.51,6.81-21.64,0-14.1-9-22.86T185.79,223.7a235.93,235.93,0,0,0-33.07-10.21q-18.5-4.38-37.45-9.73a330.15,330.15,0,0,1-37.93-11.91,130.27,130.27,0,0,1-33.07-18.24,85.74,85.74,0,0,1-23.59-28q-9-16.77-9-40.61,0-26.73,11.43-46.44A103.28,103.28,0,0,1,53,25.78,130.24,130.24,0,0,1,94.85,6.32,178.06,178.06,0,0,1,141.53,0a221,221,0,0,1,52.28,6.08,130.5,130.5,0,0,1,44.5,19.7,99.68,99.68,0,0,1,30.88,34.77q11.42,21.15,11.43,51.3H206.7q-1-15.55-6.57-25.77A43,43,0,0,0,185.3,70a62.91,62.91,0,0,0-21.15-8.27,130.4,130.4,0,0,0-26-2.43,89.87,89.87,0,0,0-18.48,1.94,49.71,49.71,0,0,0-16.78,6.81,42.29,42.29,0,0,0-12.4,12.16q-4.86,7.29-4.86,18.48,0,10.22,3.89,16.53t15.32,11.68q11.42,5.35,31.61,10.7t52.76,13.61q9.72,1.95,27,7.06a129.31,129.31,0,0,1,34.29,16.29,103.86,103.86,0,0,1,29.42,29.9q12.41,18.73,12.4,47.91a106.27,106.27,0,0,1-9.24,44.25,96.2,96.2,0,0,1-27.48,35.26q-18.24,14.83-45.22,23.1t-62.49,8.26a219.44,219.44,0,0,1-55.69-7,139.91,139.91,0,0,1-47.66-22.13,109.12,109.12,0,0,1-32.82-38.41Q-.47,272.33,0,240.24H73.94Q73.94,257.75,80.26,269.9Z"/><path class="cls-1" d="M672.25,7.12H614.76Q611.7,27.48,602,41.21a77.33,77.33,0,0,1-23.66,22.13A94.83,94.83,0,0,1,547.11,75a112.32,112.32,0,0,1,5.71,36.42,142,142,0,0,1-1.46,20.87H600v231h72.25V7.12"/><path class="cls-1" d="M430.71,0Q398.66,0,374,10.94a110.61,110.61,0,0,0-41,30.53A131.81,131.81,0,0,0,308.6,87.26a158.26,158.26,0,0,0-5.46,24.59h71.11a88.18,88.18,0,0,1,8.63-23.07,55.12,55.12,0,0,1,17.56-19.33q10.94-7.36,26.71-7.38,23.4,0,38.41,14.5t15,40.45a56.78,56.78,0,0,1-7.38,29,98.72,98.72,0,0,1-18.31,22.9,166,166,0,0,1-24.17,18.57q-13.24,8.38-24.93,16.53-22.9,15.78-43.5,31a210.94,210.94,0,0,0-35.87,33.33,143.27,143.27,0,0,0-24.17,40.95q-8.91,22.91-8.9,53.93H554.85V301.2H386.45A161.05,161.05,0,0,1,417,269.15q17.29-13.74,35.62-25.7T489,219.29a194.55,194.55,0,0,0,32.31-27.22,121.79,121.79,0,0,0,22.9-34.35,97.1,97.1,0,0,0,7.19-25.43h-40.9V77.85c1.68,0,3.35.06,5,.06a169.05,169.05,0,0,0,31.36-2.86l.27,0a98,98,0,0,0-4.21-10.38,104,104,0,0,0-26.71-35.11A120.15,120.15,0,0,0,477.26,7.63,141.7,141.7,0,0,0,430.71,0"/></g></g></svg>