<?xml version="1.0"?>
<svg xmlns="http://www.w3.org/2000/svg" xmlns:xlink="http://www.w3.org/1999/xlink" version="1.1" id="Capa_1" x="0px" y="0px" viewBox="0 0 58 58" style="enable-background:new 0 0 58 58;" xml:space="preserve" width="512px" height="512px" class=""><g><g>
	<polygon style="fill:#0076A9" points="0,8.5 0,8.604 0,49.371 0,49.5 0.129,49.5 57.541,49.5 57.871,49.5 58,49.5 58,49.371    58,8.604 58,8.5  " data-original="#E5E5DA" class="" data-old_color="#E5E5DA"/>
	<path style="fill:#79D7FA" d="M0,8.501l27.139,27.267c1.049,0.976,2.674,0.976,3.723,0L58,8.5L0,8.501z" data-original="#D1D0BF" class="" data-old_color="#D1D0BF"/>
	<path style="fill:#009EE4" d="M0,48.209V9.791c0-0.529,0.606-0.829,1.027-0.508L21,29.5L1.027,48.718   C0.606,49.038,0,48.738,0,48.209z" data-original="#C4C2A5" class="active-path" data-old_color="#79D7FA"/>
	<path style="fill:#009EE4" d="M58,48.209V9.791c0-0.529-0.606-0.829-1.027-0.508L37,29.5l19.973,19.218   C57.394,49.038,58,48.738,58,48.209z" data-original="#C4C2A5" class="active-path" data-old_color="#79D7FA"/>
</g></g> </svg>
