<svg xmlns="http://www.w3.org/2000/svg" viewBox="0 0 823.25 234.98"><defs><style>.cls-1{fill:#c7001c;fill-rule:evenodd;}.cls-2{fill:#606061;}</style></defs><g id="Camada_2" data-name="Camada 2"><g id="empresas"><g id="bosch_insane"><g id="brand-claim-portuguese"><g id="claim-portuguese"><path d="M274.57,192.16v-3.51h26.79v3.51H290.1v32.89h-4.22V192.16Z"/><path d="M324.68,220.83a11.24,11.24,0,0,1-10.13,4.68c-8.45,0-13.19-5.55-13.19-13.7S306.3,198,313.48,198s11.41,5,11.41,13.23v1.38H305.74c.1,3.81,1,5.95,2.8,7.63a8.3,8.3,0,0,0,5.91,1.79,7.83,7.83,0,0,0,7.13-3.67Zm-4.12-11.67c-.56-5.44-2.6-7.68-7-7.68-4.22,0-6.67,2.49-7.64,7.68Z"/><path d="M353.66,219.91a11.11,11.11,0,0,1-10.44,5.6c-7.43,0-12.52-5.65-12.52-13.75S335.64,198,343,198a11.27,11.27,0,0,1,10,5.29l-3.52,2.19c-2-2.95-3.56-4-6.46-4-5,0-7.94,3.82-7.94,10.38S338,222,343.32,222a7.53,7.53,0,0,0,7-4Z"/><path d="M365,198.42v4.08a8.5,8.5,0,0,1,8.1-4.53c5.7,0,8.81,3.71,8.81,10.58v16.5H377.7v-16.8c0-4.58-1.73-6.62-5.65-6.62a6.64,6.64,0,0,0-7,6.2c0,.31,0,.62,0,.93v16.29H360.8V198.42Z"/><path d="M415,211.71c0,8-5.25,13.8-12.63,13.8-7.23,0-12.52-5.8-12.52-13.75S395.12,198,402.55,198C409.78,198,415,203.77,415,211.71Zm-20.78.1c0,6.27,3.16,10.19,8.15,10.19s8.25-4,8.25-10.24-3.21-10.28-8.1-10.28C397.41,201.48,394.25,205.35,394.25,211.81Z"/><path d="M434.43,224.24a8.36,8.36,0,0,1-4.68,1.22c-3.87,0-6.47-1.73-6.47-7V186.71h4.23v32.08c0,2.49,1.32,3.15,2.9,3.15a4,4,0,0,0,2.65-.86Z"/><path d="M462.49,211.71c0,8-5.24,13.8-12.62,13.8s-12.53-5.8-12.53-13.75S442.58,198,450,198C457.25,198,462.49,203.77,462.49,211.71Zm-20.77.1c0,6.27,3.16,10.19,8.15,10.19s8.24-4,8.24-10.24-3.2-10.28-8.09-10.28C444.88,201.48,441.72,205.35,441.72,211.81Z"/><path d="M482.56,219.25c6,0,9.37,2.59,9.37,7.17,0,5.25-4.84,8.56-12.58,8.56-7.18,0-11.76-2.85-11.76-7.33,0-2.39,1.48-4.28,4.53-5.71a4.48,4.48,0,0,1-2.59-4.27,5,5,0,0,1,2.9-4.53,8,8,0,0,1-3.26-6.52c0-5.14,4-8.65,9.78-8.65a11.92,11.92,0,0,1,5.29,1.11l7.64-1.06v3.81h-4a7.75,7.75,0,0,1,1.73,5.1c0,5.24-3.87,8.45-10.08,8.45a11.65,11.65,0,0,1-4.84-.92,3.07,3.07,0,0,0-1.37,2.5c0,1.73,1,2.29,3.92,2.29Zm-5.8,3.66c-.41,0-1.28,0-1.68-.1-2.34,1.17-3.36,2.55-3.36,4.43,0,2.9,2.59,4.38,7.73,4.38,5.5,0,8.36-1.73,8.36-5,0-2.5-1.79-3.72-5.3-3.72Zm-3.36-16.29c0,3.31,2.34,5.4,6.16,5.4s5.85-1.89,5.85-5.3c0-3.26-2.34-5.4-6.06-5.4S473.4,203.31,473.4,206.62Z"/><path d="M504.05,190.12a2.8,2.8,0,1,1-2.8-2.8A2.8,2.8,0,0,1,504.05,190.12Zm-.61,8.3v26.63h-4.22V198.42Z"/><path d="M535.32,225.2a13.5,13.5,0,0,1-1.48.06,5.22,5.22,0,0,1-5.5-3.82,10,10,0,0,1-8.19,4.07c-4.94,0-8.4-3.06-8.4-7.33,0-3.92,2.59-6.72,7.33-8a37,37,0,0,1,9-1v-1.68c0-4.12-1.63-6-5.24-6a10.72,10.72,0,0,0-7.64,3.31l-2.5-2.75A13.8,13.8,0,0,1,522.85,198c6.1,0,9.47,3.35,9.47,9.51v11.87c0,1.88.71,2.49,3,2.54Zm-7.23-13c-8.55.31-12.12,2-12.12,5.8,0,2.65,1.73,4.13,4.89,4.13,4.23,0,7.23-2.45,7.23-5.86Z"/><path d="M562.77,198.42v4.38a10.09,10.09,0,0,1,8.86-4.83c6.83,0,11.36,5.39,11.36,13.64s-4.48,13.9-11.41,13.9a9.88,9.88,0,0,1-8.81-4.74v13.55h-4.22v-35.9Zm-.15,13.34c0,6.52,3,10.24,8.25,10.24s7.74-3.36,7.74-10.14c0-6.51-2.85-10.38-7.69-10.38C565.73,201.48,562.62,205.35,562.62,211.76Z"/><path d="M612.58,225.2a13.5,13.5,0,0,1-1.48.06,5.2,5.2,0,0,1-5.5-3.82,10.05,10.05,0,0,1-8.19,4.07c-4.94,0-8.41-3.06-8.41-7.33,0-3.92,2.6-6.72,7.34-8a36.91,36.91,0,0,1,9-1v-1.68c0-4.12-1.63-6-5.25-6a10.71,10.71,0,0,0-7.63,3.31L590,202A13.79,13.79,0,0,1,600.1,198c6.11,0,9.47,3.35,9.47,9.51v11.87c0,1.88.72,2.49,3,2.54Zm-7.23-13c-8.56.31-12.12,2-12.12,5.8,0,2.65,1.73,4.13,4.89,4.13,4.22,0,7.23-2.45,7.23-5.86Z"/><path d="M623.63,198.42v4.28a7.74,7.74,0,0,1,7.13-4.73,8.5,8.5,0,0,1,4.33,1.06l-1.73,3.57a5.87,5.87,0,0,0-3.11-.82c-4.12,0-6.62,3.31-6.62,8.66v14.61h-4.22V198.42Z"/><path d="M662,225.2a13.5,13.5,0,0,1-1.48.06,5.2,5.2,0,0,1-5.5-3.82,10.05,10.05,0,0,1-8.19,4.07c-4.94,0-8.41-3.06-8.41-7.33,0-3.92,2.6-6.72,7.34-8a36.91,36.91,0,0,1,9-1v-1.68c0-4.12-1.63-6-5.25-6a10.71,10.71,0,0,0-7.63,3.31l-2.5-2.75A13.79,13.79,0,0,1,649.5,198c6.11,0,9.47,3.35,9.47,9.51v11.87c0,1.88.72,2.49,3,2.54Zm-7.23-13c-8.56.31-12.12,2-12.12,5.8,0,2.65,1.73,4.13,4.89,4.13,4.22,0,7.23-2.45,7.23-5.86Z"/><path d="M706.54,225.2a13.5,13.5,0,0,1-1.48.06,5.21,5.21,0,0,1-5.5-3.82,10,10,0,0,1-8.19,4.07c-4.94,0-8.4-3.06-8.4-7.33,0-3.92,2.59-6.72,7.33-8a36.91,36.91,0,0,1,9-1v-1.68c0-4.12-1.63-6-5.24-6a10.72,10.72,0,0,0-7.64,3.31l-2.5-2.75A13.8,13.8,0,0,1,694.07,198c6.1,0,9.46,3.35,9.46,9.51v11.87c0,1.88.72,2.49,3,2.54Zm-7.23-13c-8.55.31-12.12,2-12.12,5.8,0,2.65,1.73,4.13,4.89,4.13,4.22,0,7.23-2.45,7.23-5.86Z"/><path d="M730.18,198.42l7.12,22.35,7-22.35h4.38l-9,26.63h-5l-9.12-26.63Z"/><path d="M759.71,190.12a2.8,2.8,0,1,1-2.8-2.8A2.83,2.83,0,0,1,759.71,190.12Zm-.61,8.3v26.63h-4.23V198.42Z"/><path d="M787.62,220.77a10,10,0,0,1-8.81,4.74c-6.93,0-11.41-5.45-11.41-13.9,0-8.25,4.53-13.64,11.36-13.64a10.09,10.09,0,0,1,8.86,4.83V186.71h4.22v38.34h-4.22Zm-15.84-8.91c0,6.72,2.55,10.14,7.64,10.14,5.35,0,8.35-3.72,8.35-10.24,0-6.36-3.11-10.28-8.2-10.28S771.78,205.25,771.78,211.86Z"/><path d="M823.16,225.2a13.24,13.24,0,0,1-1.47.06,5.2,5.2,0,0,1-5.5-3.82,10.06,10.06,0,0,1-8.2,4.07c-4.94,0-8.4-3.06-8.4-7.33,0-3.92,2.6-6.72,7.33-8a37,37,0,0,1,9-1v-1.68c0-4.12-1.62-6-5.24-6a10.74,10.74,0,0,0-7.64,3.31L800.56,202A13.78,13.78,0,0,1,810.69,198c6.11,0,9.47,3.35,9.47,9.51v11.87c0,1.88.71,2.49,3,2.54Zm-7.23-13c-8.55.31-12.11,2-12.11,5.8,0,2.65,1.73,4.13,4.88,4.13,4.23,0,7.23-2.45,7.23-5.86Z"/></g><g id="brand-portuguese-2"><g id="logotype-11"><path id="logotype-b-11" class="cls-1" d="M352.12,88.79a26.16,26.16,0,0,0,16.73-24.72c0-22.24-15.78-33.27-37.46-33.27H274.54V151.72h61.8c19,0,37.64-13.31,37.64-33.65C374,93.92,352.12,89,352.12,88.79ZM304.2,55.9h22.06A10.78,10.78,0,0,1,337.67,66c0,.43,0,.86,0,1.3a11.27,11.27,0,0,1-11.49,11l-.49,0H304Zm22.25,70.54H304.39V102.67h21.49c10.84,0,16,4.75,16,11.79C341.85,123.2,335.39,126.44,326.45,126.44Z"/><path id="logotype-o-11" class="cls-1" d="M439.39,27.76c-35,0-55.52,28-55.52,63.31,0,35.56,20.53,63.31,55.52,63.31,35.17,0,55.51-27.75,55.51-63.31C494.9,55.71,474.56,27.76,439.39,27.76Zm0,97.72c-17.12,0-25.67-15.4-25.67-34.41s8.55-34.22,25.67-34.22,25.85,15.4,25.85,34.22C465.24,110.27,456.5,125.48,439.39,125.48Z"/><path id="logotype-s-11" class="cls-1" d="M559.36,78.33l-4.19-1c-10.26-2.09-18.44-4.75-18.44-12.17,0-8,7.8-11.21,14.64-11.21a34,34,0,0,1,24.72,11.21l18.82-18.63c-8.56-9.7-22.43-19-44.11-19-25.48,0-44.87,14.26-44.87,38,0,21.68,15.59,32.33,34.6,36.32l4.19,1c15.78,3.23,21.67,5.7,21.67,13.31,0,7.22-6.46,12-16.35,12-11.79,0-22.43-5.14-30.61-15.59l-19.2,19c10.64,12.74,24.14,22.62,50.19,22.62,22.63,0,46.77-12.92,46.77-39.35C597.57,87.27,576.66,82,559.36,78.33Z"/><path id="logotype-c-11" class="cls-1" d="M664.88,125.48c-13.31,0-27.19-11-27.19-35.17,0-21.48,12.93-33.46,26.43-33.46,10.64,0,16.92,4.94,21.86,13.5l24.34-16.16C698.15,35.74,683.7,28,663.74,28c-36.51,0-56.28,28.33-56.28,62.55,0,35.94,21.86,64.07,55.9,64.07,23.95,0,35.36-8.36,47.72-26.23L686.55,111.8C681.61,119.78,676.29,125.48,664.88,125.48Z"/><polygon id="logotype-h-11" class="cls-1" points="791.5 30.8 791.5 75.29 754.81 75.29 754.81 30.8 723.06 30.8 723.06 151.72 754.81 151.72 754.81 104 791.5 104 791.5 151.72 823.25 151.72 823.25 30.8 791.5 30.8"/></g><g id="symbol-11"><path class="cls-2" d="M91.64,0a91.64,91.64,0,1,0,91.64,91.64A91.64,91.64,0,0,0,91.64,0Zm0,174.73a83.09,83.09,0,1,1,83.09-83.09A83.08,83.08,0,0,1,91.64,174.73Z"/><path class="cls-2" d="M129.48,34.41H123.2V65.78H60.27V34.41H53.81a68.55,68.55,0,0,0,0,114.46h6.46V117.5H123.2v31.37h6.28a68.58,68.58,0,0,0,0-114.46Zm-78,102.1a60.08,60.08,0,0,1,0-89.74Zm71.68-27.76H60.27V74.34H123.2Zm8.56,27.57v-19h0V65.78h0v-19a60.2,60.2,0,0,1,0,89.55Z"/></g></g></g></g></g></g></svg>